<svg data-v-fde0c5aa="" xmlns="http://www.w3.org/2000/svg" viewBox="0 0 300 300" class="iconLeftSlogan"><!----><defs data-v-fde0c5aa=""><!----></defs><rect data-v-fde0c5aa="" fill="#4D65F1" x="0" y="0" width="300px" height="300px" class="logo-background-square"></rect><defs data-v-fde0c5aa=""><!----></defs><g data-v-fde0c5aa="" id="5e3a8f9e-d667-4634-8f53-1292fcd0cd91" fill="#ffffff" transform="matrix(2.0181009239107683,0,0,2.0181009239107683,97.42179690251648,126.21637084365835)"><path d="M4.45 12.04L1.22 12.04L1.22 1.91L3.32 1.91L3.32 1.91Q5.60 1.91 6.63 2.28L6.63 2.28L6.63 2.28Q8.10 2.79 8.93 4.06L8.93 4.06L8.93 4.06Q9.76 5.34 9.76 7.10L9.76 7.10L9.76 7.10Q9.76 8.62 9.10 9.78L9.10 9.78L9.10 9.78Q8.44 10.94 7.39 11.49L7.39 11.49L7.39 11.49Q6.34 12.04 4.45 12.04L4.45 12.04ZM2.19 2.89L2.19 11.08L3.36 11.08L3.36 11.08Q5.46 11.08 6.28 10.82L6.28 10.82L6.28 10.82Q7.42 10.45 8.08 9.48L8.08 9.48L8.08 9.48Q8.74 8.52 8.74 7.12L8.74 7.12L8.74 7.12Q8.74 5.65 8.03 4.61L8.03 4.61L8.03 4.61Q7.32 3.57 6.05 3.19L6.05 3.19L6.05 3.19Q5.09 2.89 2.91 2.89L2.91 2.89L2.19 2.89ZM17.87 9.42L17.87 9.42L18.68 9.85L18.68 9.85Q18.29 10.64 17.76 11.12L17.76 11.12L17.76 11.12Q17.23 11.59 16.58 11.84L16.58 11.84L16.58 11.84Q15.92 12.09 15.09 12.09L15.09 12.09L15.09 12.09Q13.26 12.09 12.23 10.89L12.23 10.89L12.23 10.89Q11.20 9.69 11.20 8.18L11.20 8.18L11.20 8.18Q11.20 6.75 12.07 5.64L12.07 5.64L12.07 5.64Q13.18 4.22 15.05 4.22L15.05 4.22L15.05 4.22Q16.95 4.22 18.10 5.67L18.10 5.67L18.10 5.67Q18.92 6.70 18.92 8.23L18.92 8.23L12.19 8.23L12.19 8.23Q12.22 9.54 13.02 10.38L13.02 10.38L13.02 10.38Q13.83 11.22 15.01 11.22L15.01 11.22L15.01 11.22Q15.59 11.22 16.13 11.02L16.13 11.02L16.13 11.02Q16.67 10.81 17.05 10.49L17.05 10.49L17.05 10.49Q17.42 10.16 17.87 9.42ZM12.29 7.40L17.87 7.40L17.87 7.40Q17.68 6.63 17.31 6.17L17.31 6.17L17.31 6.17Q16.94 5.71 16.33 5.42L16.33 5.42L16.33 5.42Q15.72 5.14 15.05 5.14L15.05 5.14L15.05 5.14Q13.95 5.14 13.16 5.85L13.16 5.85L13.16 5.85Q12.58 6.37 12.29 7.40L12.29 7.40ZM23.46 12.10L20.01 4.60L21.03 4.60L23.54 10.06L26.03 4.60L27.06 4.60L23.63 12.10L23.46 12.10ZM42.23 3.69L42.23 3.69L41.44 4.44L41.44 4.44Q40.59 3.60 39.58 3.17L39.58 3.17L39.58 3.17Q38.58 2.74 37.61 2.74L37.61 2.74L37.61 2.74Q36.42 2.74 35.35 3.33L35.35 3.33L35.35 3.33Q34.27 3.92 33.67 4.92L33.67 4.92L33.67 4.92Q33.08 5.91 33.08 6.82L33.08 6.82L33.08 6.82Q33.08 7.96 33.69 8.99L33.69 8.99L33.69 8.99Q34.31 10.02 35.39 10.61L35.39 10.61L35.39 10.61Q36.48 11.19 37.76 11.19L37.76 11.19L37.76 11.19Q39.32 11.19 40.40 10.31L40.40 10.31L40.40 10.31Q41.49 9.43 41.69 8.03L41.69 8.03L38.46 8.03L38.46 7.05L42.82 7.05L42.82 7.05Q42.81 9.40 41.43 10.78L41.43 10.78L41.43 10.78Q40.05 12.16 37.73 12.16L37.73 12.16L37.73 12.16Q34.92 12.16 33.28 10.25L33.28 10.25L33.28 10.25Q32.02 8.77 32.02 6.84L32.02 6.84L32.02 6.84Q32.02 5.39 32.74 4.27L32.74 4.27L32.74 4.27Q33.46 3.14 34.73 2.43L34.73 2.43L34.73 2.43Q35.99 1.73 37.58 1.73L37.58 1.73L37.58 1.73Q38.87 1.73 40.00 2.20L40.00 2.20L40.00 2.20Q41.14 2.67 42.23 3.69ZM48.13 4.22L48.13 4.22L48.13 4.22Q49.85 4.22 51.00 5.47L51.00 5.47L51.00 5.47Q52.05 6.61 52.05 8.18L52.05 8.18L52.05 8.18Q52.06 12.07 52.05 12.13L52.05 12.13L52.05 12.13Q51.39 12.13 51.03 12.13L51.03 12.13L51.03 12.13Q51.03 12.08 51.03 10.42L51.03 10.42L51.03 10.42Q50.23 11.92 48.13 12.09L48.13 12.09L48.13 12.09Q46.40 12.09 45.31 10.92L45.31 10.92L45.31 10.92Q44.22 9.75 44.22 8.18L44.22 8.18L44.22 8.18Q44.22 6.62 45.25 5.48L45.25 5.48L45.25 5.48Q46.40 4.22 48.13 4.22ZM48.13 5.16L48.13 5.16L48.13 5.16Q46.93 5.16 46.07 6.05L46.07 6.05L46.07 6.05Q45.21 6.94 45.21 8.20L45.21 8.20L45.21 8.20Q45.21 9.01 45.65 9.76L45.65 9.76L45.65 9.76Q46.09 10.51 47.14 11.03L47.14 11.03L47.14 11.03Q49.78 11.62 50.89 8.63L50.89 8.63L50.89 8.63Q50.96 7.68 50.69 6.80L50.69 6.80L50.69 6.80Q50.50 6.41 50.16 6.05L50.16 6.05L50.16 6.05Q49.32 5.16 48.13 5.16ZM54.52 10.63L54.52 10.63L54.52 10.63Q53.91 9.60 53.79 8.61L53.79 8.61L53.79 8.61Q53.79 1.50 53.79 1.51L53.79 1.51L54.74 1.51L54.74 5.69L54.74 5.69Q55.35 4.95 56.10 4.58L56.10 4.58L56.10 4.58Q56.85 4.22 57.75 4.22L57.75 4.22L57.75 4.22Q59.34 4.22 60.46 5.37L60.46 5.37L60.46 5.37Q61.59 6.53 61.59 8.18L61.59 8.18L61.59 8.18Q61.59 9.80 60.46 10.94L60.46 10.94L60.46 10.94Q59.32 12.09 57.72 12.09L57.72 12.09L57.72 12.09Q56.81 12.09 56.00 11.74L56.00 11.74L56.00 11.74Q55.20 11.39 54.52 10.63ZM57.64 11.17L57.64 11.17L57.64 11.17Q58.45 11.17 59.13 10.77L59.13 10.77L59.13 10.77Q59.81 10.37 60.22 9.66L60.22 9.66L60.22 9.66Q60.62 8.95 60.62 8.14L60.62 8.14L60.62 8.14Q60.62 7.35 60.21 6.62L60.21 6.62L60.21 6.62Q59.81 5.89 59.12 5.49L59.12 5.49L59.12 5.49Q58.43 5.09 57.65 5.09L57.65 5.09L57.65 5.09Q56.86 5.09 56.15 5.49L56.15 5.49L56.15 5.49Q55.44 5.89 55.06 6.58L55.06 6.58L55.06 6.58Q54.67 7.27 54.67 8.11L54.67 8.11L54.67 8.11Q54.67 9.42 55.54 10.29L55.54 10.29L55.54 10.29Q56.40 11.17 57.64 11.17ZM63.16 12.07L63.16 8.65L63.16 7.75L63.16 7.75Q63.27 7.08 63.47 6.65L63.47 6.65L63.47 6.65Q63.95 5.48 64.76 4.93L64.76 4.93L64.76 4.93Q65.56 4.38 66.10 4.38L66.10 4.38L66.10 4.38Q66.49 4.38 66.94 4.64L66.94 4.64L66.45 5.45L66.45 5.45Q65.81 5.22 65.18 5.82L65.18 5.82L65.18 5.82Q64.56 6.43 64.32 7.15L64.32 7.15L64.32 7.15Q64.14 7.79 64.14 9.54L64.14 9.54L64.14 12.07L63.16 12.07ZM68.10 1.50L68.10 1.50L68.10 1.50Q68.43 1.50 68.66 1.74L68.66 1.74L68.66 1.74Q68.90 1.97 68.90 2.30L68.90 2.30L68.90 2.30Q68.90 2.63 68.66 2.86L68.66 2.86L68.66 2.86Q68.43 3.10 68.10 3.10L68.10 3.10L68.10 3.10Q67.77 3.10 67.54 2.86L67.54 2.86L67.54 2.86Q67.31 2.63 67.31 2.30L67.31 2.30L67.31 2.30Q67.31 1.97 67.54 1.74L67.54 1.74L67.54 1.74Q67.77 1.50 68.10 1.50ZM67.62 12.09L67.62 4.59L68.58 4.59L68.58 12.09L67.62 12.09ZM76.89 9.42L76.89 9.42L77.70 9.85L77.70 9.85Q77.31 10.64 76.78 11.12L76.78 11.12L76.78 11.12Q76.25 11.59 75.60 11.84L75.60 11.84L75.60 11.84Q74.94 12.09 74.12 12.09L74.12 12.09L74.12 12.09Q72.28 12.09 71.25 10.89L71.25 10.89L71.25 10.89Q70.22 9.69 70.22 8.18L70.22 8.18L70.22 8.18Q70.22 6.75 71.09 5.64L71.09 5.64L71.09 5.64Q72.20 4.22 74.07 4.22L74.07 4.22L74.07 4.22Q75.97 4.22 77.12 5.67L77.12 5.67L77.12 5.67Q77.94 6.70 77.94 8.23L77.94 8.23L71.21 8.23L71.21 8.23Q71.24 9.54 72.04 10.38L72.04 10.38L72.04 10.38Q72.85 11.22 74.03 11.22L74.03 11.22L74.03 11.22Q74.61 11.22 75.15 11.02L75.15 11.02L75.15 11.02Q75.69 10.81 76.07 10.49L76.07 10.49L76.07 10.49Q76.45 10.16 76.89 9.42ZM71.31 7.40L76.89 7.40L76.89 7.40Q76.70 6.63 76.33 6.17L76.33 6.17L76.33 6.17Q75.96 5.71 75.35 5.42L75.35 5.42L75.35 5.42Q74.74 5.14 74.07 5.14L74.07 5.14L74.07 5.14Q72.97 5.14 72.18 5.85L72.18 5.85L72.18 5.85Q71.61 6.37 71.31 7.40L71.31 7.40ZM79.59 12.09L79.59 1.69L80.56 1.69L80.56 12.09L79.59 12.09Z"></path></g><defs data-v-fde0c5aa=""><!----></defs><g data-v-fde0c5aa="" id="b4b273dc-9e3e-4abd-8a40-d8282c8f3dd5" stroke="none" fill="#ffffff" transform="matrix(0.5207936845741546,0,0,0.5207936845741546,37.4012739032369,123.94167856939484)"><path d="M94.8 45.3c-.9-6.8-2.9-13.1-6.5-19C83.7 19 76.9 12.7 69 9.2c.2.1.4.2.7.3-9.8-4.7-21-5.8-31.5-3-8.5 2.3-16.1 7.1-22 13.7C6.7 31 2.8 46.5 6.2 60.5c2.7 10.8 9.1 20 18.1 26.5 6.7 4.6 14.6 7.4 22.7 8 9.3.6 18.6-1.7 26.5-6.6C82.2 83 88.4 75 92.2 65.6c2.6-6.3 3.2-13.6 2.6-20.3zm-3 2.4c-.6 7.5-3.6 14.6-9.1 19.8-5.1 4.9-11.9 7.7-18.9 8.4-15.3 1.5-31.1-7.2-38.2-20.9-5.9-11.5-5.7-26.6 2.7-36.9 4.5-5.5 11-8.9 17.9-10.1 9.1-1.7 18.3.3 26.2 5.1 11.9 7.1 20.5 20.5 19.4 34.6-2.3 29.5 1.5-19.2 0 0z"></path></g><defs data-v-fde0c5aa=""><!----></defs><g data-v-fde0c5aa="" id="8b176572-c377-4867-a0b3-2eb24d38547c" fill="#ffffff" transform="matrix(0.5165202908375028,0,0,0.5165202908375028,99.5223158899971,158.79886588790504)"><path d="M9.70 6.80C9.48 6.19 9.16 5.68 8.74 5.25C8.32 4.82 7.83 4.48 7.25 4.26C6.68 4.03 6.02 3.92 5.32 3.92L1.89 3.92L0.70 3.92L0.70 4.19C0.70 4.34 0.80 4.42 0.98 4.44L1.12 4.44C1.19 4.44 1.29 4.45 1.43 4.45C1.57 4.45 1.72 4.47 1.89 4.47L1.89 13.26C1.72 13.26 1.57 13.27 1.43 13.27C1.29 13.27 1.19 13.29 1.12 13.29L0.98 13.29C0.80 13.30 0.70 13.38 0.70 13.54L0.70 13.82L1.89 13.82L5.32 13.82C6.02 13.82 6.68 13.71 7.25 13.48C7.83 13.26 8.32 12.92 8.74 12.49C9.16 12.05 9.48 11.54 9.70 10.92C9.93 10.30 10.05 9.63 10.05 8.86C10.05 8.11 9.93 7.42 9.70 6.80ZM9.02 10.72C8.82 11.27 8.57 11.72 8.22 12.10C7.87 12.47 7.45 12.75 6.96 12.95C6.47 13.15 5.92 13.24 5.32 13.24L2.60 13.24L2.60 4.49L5.32 4.49C5.92 4.49 6.47 4.59 6.96 4.79C7.45 4.98 7.87 5.26 8.22 5.64C8.57 6.02 8.82 6.47 9.02 7.01C9.21 7.56 9.31 8.18 9.31 8.86C9.31 9.56 9.21 10.18 9.02 10.72ZM19.53 3.92L18.34 3.92L18.34 4.19C18.34 4.34 18.44 4.42 18.62 4.44L18.76 4.44C18.83 4.44 18.93 4.45 19.07 4.45C19.21 4.45 19.36 4.47 19.53 4.47L19.53 13.26C19.36 13.26 19.21 13.27 19.07 13.27C18.93 13.27 18.83 13.29 18.76 13.29L18.62 13.29C18.44 13.30 18.35 13.38 18.35 13.54L18.35 13.82L19.53 13.82L25.47 13.82L25.47 13.22L25.47 11.76L25.12 11.76C24.92 11.76 24.84 11.89 24.82 12.11C24.82 12.14 24.81 12.19 24.81 12.29C24.81 12.39 24.81 12.53 24.79 12.74C24.78 12.95 24.77 13.09 24.77 13.22L20.24 13.22L20.24 9.09L24.19 9.09L24.19 8.51L20.24 8.51L20.24 4.51L24.77 4.51C24.79 5.12 24.82 5.50 24.82 5.63C24.84 5.85 24.92 5.96 25.12 5.96L25.47 5.96L25.47 4.51L25.47 3.92ZM42.95 3.92L42.39 3.92L42.36 3.92L40.89 3.92L40.89 4.19C40.89 4.34 40.98 4.42 41.16 4.44L41.29 4.44C41.34 4.44 41.43 4.45 41.55 4.45C41.68 4.45 41.82 4.47 41.97 4.47L38.77 12.32C38.68 12.53 38.61 12.75 38.56 13.01C38.50 12.77 38.43 12.53 38.35 12.32L35.11 4.47C35.27 4.47 35.42 4.45 35.55 4.45C35.67 4.45 35.76 4.44 35.81 4.44L35.92 4.44C36.11 4.42 36.20 4.34 36.20 4.19L36.20 3.92L34.71 3.92L34.15 3.92L33.54 3.92L33.54 4.19C33.54 4.34 33.64 4.42 33.82 4.44L33.92 4.44C33.96 4.44 34.03 4.45 34.10 4.45C34.17 4.45 34.27 4.47 34.37 4.47L38.23 13.82L38.86 13.82L42.73 4.47C42.83 4.47 42.92 4.45 42.99 4.45C43.06 4.45 43.13 4.44 43.18 4.44L43.26 4.44C43.44 4.42 43.54 4.34 43.54 4.19L43.54 3.92ZM52.78 3.92L51.59 3.92L51.59 4.19C51.59 4.34 51.69 4.42 51.87 4.44L52.01 4.44C52.08 4.44 52.18 4.45 52.32 4.45C52.46 4.45 52.61 4.47 52.78 4.47L52.78 13.26C52.61 13.26 52.46 13.27 52.32 13.27C52.18 13.27 52.08 13.29 52.01 13.29L51.87 13.29C51.69 13.30 51.60 13.38 51.60 13.54L51.60 13.82L52.78 13.82L58.72 13.82L58.72 13.22L58.72 11.76L58.37 11.76C58.17 11.76 58.09 11.89 58.07 12.11C58.07 12.14 58.06 12.19 58.06 12.29C58.06 12.39 58.06 12.53 58.04 12.74C58.03 12.95 58.02 13.09 58.02 13.22L53.49 13.22L53.49 9.09L57.44 9.09L57.44 8.51L53.49 8.51L53.49 4.51L58.02 4.51C58.04 5.12 58.07 5.50 58.07 5.63C58.09 5.85 58.17 5.96 58.37 5.96L58.72 5.96L58.72 4.51L58.72 3.92ZM73.67 11.97C73.47 11.97 73.39 12.08 73.37 12.31C73.37 12.32 73.37 12.38 73.36 12.43C73.35 12.49 73.35 12.59 73.33 12.71C73.32 12.84 73.30 13.01 73.29 13.20L69.20 13.20L69.20 4.47C69.37 4.47 69.51 4.45 69.65 4.45C69.79 4.45 69.90 4.44 69.97 4.44L70.10 4.44C70.28 4.42 70.38 4.34 70.38 4.19L70.38 3.92L69.20 3.92L68.49 3.92L67.30 3.92L67.30 4.19C67.30 4.34 67.40 4.42 67.58 4.44L67.72 4.44C67.79 4.44 67.89 4.45 68.03 4.45C68.17 4.45 68.32 4.47 68.49 4.47L68.49 13.26C68.32 13.26 68.17 13.27 68.03 13.27C67.89 13.27 67.79 13.29 67.72 13.29L67.58 13.29C67.40 13.30 67.30 13.38 67.30 13.54L67.30 13.82L68.49 13.82L73.77 13.82L73.89 13.82L74.02 13.82L74.02 13.55L74.02 12.99L74.02 11.97L73.74 11.97ZM91.15 8.86C91.15 8.11 91.03 7.41 90.80 6.79C90.58 6.17 90.26 5.64 89.84 5.19C89.42 4.75 88.93 4.40 88.35 4.16C87.78 3.92 87.12 3.79 86.42 3.79C85.72 3.79 85.09 3.92 84.52 4.16C83.94 4.40 83.44 4.75 83.02 5.19C82.60 5.64 82.28 6.17 82.05 6.79C81.83 7.41 81.70 8.11 81.70 8.86C81.70 9.63 81.83 10.33 82.05 10.95C82.28 11.56 82.60 12.10 83.02 12.54C83.44 12.99 83.94 13.33 84.52 13.57C85.09 13.80 85.72 13.93 86.42 13.93C87.12 13.93 87.78 13.80 88.35 13.57C88.93 13.33 89.42 12.99 89.84 12.54C90.26 12.10 90.58 11.56 90.80 10.95C91.03 10.33 91.15 9.63 91.15 8.86ZM90.40 8.86C90.40 9.56 90.31 10.18 90.12 10.72C89.92 11.27 89.66 11.75 89.31 12.12C88.96 12.50 88.54 12.81 88.05 13.01C87.56 13.20 87.02 13.30 86.42 13.30C85.83 13.30 85.30 13.20 84.81 13.01C84.32 12.81 83.90 12.50 83.55 12.12C83.20 11.75 82.92 11.27 82.73 10.72C82.53 10.18 82.45 9.56 82.45 8.86C82.45 8.18 82.53 7.55 82.73 7.00C82.92 6.45 83.20 5.98 83.55 5.60C83.90 5.22 84.32 4.91 84.81 4.72C85.30 4.52 85.83 4.41 86.42 4.41C87.02 4.41 87.56 4.52 88.05 4.72C88.54 4.91 88.96 5.22 89.31 5.60C89.66 5.98 89.92 6.45 90.12 7.00C90.31 7.55 90.40 8.18 90.40 8.86ZM105.66 4.68C105.07 4.17 104.19 3.92 103.03 3.92L100.62 3.92L99.43 3.92L99.43 4.19C99.43 4.34 99.53 4.42 99.71 4.44L99.85 4.44C99.92 4.44 100.02 4.45 100.16 4.45C100.30 4.45 100.45 4.47 100.62 4.47L100.62 13.26C100.45 13.26 100.30 13.27 100.16 13.27C100.02 13.27 99.92 13.29 99.85 13.29L99.71 13.29C99.53 13.30 99.43 13.38 99.43 13.54L99.43 13.82L100.62 13.82L101.33 13.82L102.51 13.82L102.51 13.54C102.51 13.38 102.41 13.30 102.23 13.29L102.10 13.29C102.03 13.29 101.92 13.27 101.78 13.27C101.64 13.27 101.50 13.26 101.33 13.26L101.33 9.83L103.03 9.83C103.57 9.83 104.06 9.74 104.50 9.60C104.93 9.45 105.29 9.25 105.60 8.99C105.91 8.72 106.15 8.41 106.30 8.05C106.47 7.69 106.54 7.29 106.54 6.86C106.54 5.92 106.25 5.18 105.66 4.68ZM105.63 7.81C105.50 8.11 105.32 8.36 105.08 8.57C104.85 8.78 104.55 8.95 104.20 9.07C103.85 9.20 103.46 9.25 103.03 9.25L101.33 9.25L101.33 4.48L103.03 4.48C103.95 4.48 104.65 4.69 105.13 5.10C105.59 5.50 105.83 6.09 105.83 6.85C105.83 7.20 105.76 7.52 105.63 7.81ZM126.60 4.44C126.78 4.42 126.88 4.34 126.88 4.19L126.88 3.92L125.71 3.92L125.20 3.92C125.13 3.92 125.09 3.92 125.05 3.93C125.01 3.95 124.98 3.99 124.94 4.05L121.04 10.92C121.00 10.99 120.97 11.06 120.95 11.13C120.92 11.20 120.89 11.28 120.86 11.35C120.81 11.20 120.75 11.06 120.68 10.93L116.68 4.05C116.63 3.99 116.61 3.95 116.56 3.93C116.52 3.92 116.48 3.92 116.41 3.92L115.92 3.92L114.73 3.92L114.73 4.19C114.73 4.34 114.83 4.42 115.01 4.44L115.15 4.44C115.22 4.44 115.32 4.45 115.46 4.45C115.60 4.45 115.75 4.47 115.92 4.47L115.92 13.26C115.75 13.26 115.60 13.27 115.46 13.27C115.32 13.27 115.22 13.29 115.15 13.29L115.01 13.29C114.83 13.30 114.73 13.38 114.73 13.54L114.73 13.82L115.92 13.82L116.54 13.82L117.75 13.82L117.75 13.54C117.75 13.38 117.66 13.30 117.47 13.29L117.33 13.29C117.26 13.29 117.15 13.27 117.01 13.27C116.87 13.27 116.70 13.26 116.54 13.26L116.54 5.38C116.54 5.25 116.54 5.12 116.52 4.98L120.53 11.91C120.60 12.04 120.69 12.10 120.81 12.10L120.92 12.10C121.04 12.10 121.13 12.04 121.20 11.91L125.09 4.98C125.08 5.12 125.08 5.25 125.08 5.38L125.08 13.26C124.91 13.26 124.74 13.27 124.60 13.27C124.46 13.27 124.35 13.29 124.28 13.29L124.14 13.29C123.96 13.30 123.86 13.38 123.86 13.54L123.86 13.82L125.08 13.82L125.71 13.82L126.88 13.82L126.88 13.54C126.88 13.38 126.78 13.30 126.60 13.29L126.48 13.29C126.41 13.29 126.29 13.27 126.15 13.27C126.01 13.27 125.87 13.26 125.71 13.26L125.71 4.47C125.87 4.47 126.01 4.45 126.15 4.45C126.29 4.45 126.41 4.44 126.48 4.44ZM136.42 3.92L135.23 3.92L135.23 4.19C135.23 4.34 135.32 4.42 135.51 4.44L135.65 4.44C135.72 4.44 135.81 4.45 135.95 4.45C136.09 4.45 136.25 4.47 136.42 4.47L136.42 13.26C136.25 13.26 136.09 13.27 135.95 13.27C135.81 13.27 135.72 13.29 135.65 13.29L135.51 13.29C135.32 13.30 135.24 13.38 135.24 13.54L135.24 13.82L136.42 13.82L142.35 13.82L142.35 13.22L142.35 11.76L142.00 11.76C141.81 11.76 141.72 11.89 141.71 12.11C141.71 12.14 141.69 12.19 141.69 12.29C141.69 12.39 141.69 12.53 141.68 12.74C141.67 12.95 141.65 13.09 141.65 13.22L137.13 13.22L137.13 9.09L141.08 9.09L141.08 8.51L137.13 8.51L137.13 4.51L141.65 4.51C141.68 5.12 141.71 5.50 141.71 5.63C141.72 5.85 141.81 5.96 142.00 5.96L142.35 5.96L142.35 4.51L142.35 3.92ZM159.77 3.92L159.14 3.92L157.92 3.92L157.92 4.19C157.92 4.34 158.02 4.42 158.20 4.44L158.34 4.44C158.41 4.44 158.52 4.45 158.66 4.45C158.80 4.45 158.97 4.47 159.14 4.47L159.14 12.22C159.14 12.35 159.14 12.49 159.15 12.63L152.74 4.05C152.70 3.99 152.67 3.95 152.63 3.93C152.59 3.92 152.54 3.91 152.47 3.91L152.12 3.91L150.93 3.91L150.93 4.19C150.93 4.34 151.03 4.42 151.21 4.44L151.35 4.44C151.42 4.44 151.52 4.45 151.66 4.45C151.80 4.45 151.96 4.47 152.12 4.47L152.12 13.26C151.96 13.26 151.80 13.27 151.66 13.27C151.52 13.27 151.42 13.29 151.35 13.29L151.21 13.29C151.03 13.30 150.93 13.38 150.93 13.54L150.93 13.82L152.12 13.82L152.74 13.82L153.96 13.82L153.96 13.54C153.96 13.38 153.86 13.30 153.68 13.29L153.54 13.29C153.47 13.29 153.34 13.27 153.20 13.27C153.06 13.27 152.91 13.26 152.74 13.26L152.74 5.49C152.74 5.36 152.74 5.22 152.73 5.08L159.17 13.68C159.24 13.78 159.31 13.82 159.42 13.82L159.77 13.82L159.77 4.47C159.94 4.47 160.08 4.45 160.22 4.45C160.36 4.45 160.47 4.44 160.54 4.44L160.66 4.44C160.85 4.42 160.94 4.34 160.94 4.19L160.94 3.92ZM176.50 3.92L176.30 3.92L169.01 3.92L168.80 3.92L168.70 3.92L168.70 5.96L169.05 5.96C169.25 5.96 169.33 5.85 169.34 5.63C169.34 5.53 169.37 5.17 169.40 4.52L172.30 4.52L172.30 13.26C172.13 13.26 171.99 13.27 171.85 13.27C171.71 13.27 171.60 13.29 171.53 13.29L171.40 13.29C171.22 13.30 171.12 13.38 171.12 13.54L171.12 13.82L172.30 13.82L173.01 13.82L174.20 13.82L174.20 13.54C174.20 13.38 174.10 13.30 173.92 13.29L173.78 13.29C173.71 13.29 173.61 13.27 173.47 13.27C173.33 13.27 173.18 13.26 173.01 13.26L173.01 4.52L175.90 4.52C175.94 5.24 175.95 5.60 175.95 5.63C175.97 5.85 176.06 5.96 176.26 5.96L176.60 5.96L176.60 3.92ZM204.34 8.86C204.34 8.11 204.22 7.41 203.99 6.79C203.77 6.17 203.45 5.64 203.03 5.19C202.61 4.75 202.12 4.40 201.54 4.16C200.97 3.92 200.31 3.79 199.61 3.79C198.91 3.79 198.28 3.92 197.71 4.16C197.13 4.40 196.63 4.75 196.21 5.19C195.79 5.64 195.47 6.17 195.24 6.79C195.02 7.41 194.89 8.11 194.89 8.86C194.89 9.63 195.02 10.33 195.24 10.95C195.47 11.56 195.79 12.10 196.21 12.54C196.63 12.99 197.13 13.33 197.71 13.57C198.28 13.80 198.91 13.93 199.61 13.93C200.31 13.93 200.97 13.80 201.54 13.57C202.12 13.33 202.61 12.99 203.03 12.54C203.45 12.10 203.77 11.56 203.99 10.95C204.22 10.33 204.34 9.63 204.34 8.86ZM203.59 8.86C203.59 9.56 203.50 10.18 203.31 10.72C203.11 11.27 202.85 11.75 202.50 12.12C202.15 12.50 201.73 12.81 201.24 13.01C200.75 13.20 200.21 13.30 199.61 13.30C199.02 13.30 198.49 13.20 198.00 13.01C197.51 12.81 197.09 12.50 196.74 12.12C196.39 11.75 196.11 11.27 195.92 10.72C195.72 10.18 195.64 9.56 195.64 8.86C195.64 8.18 195.72 7.55 195.92 7.00C196.11 6.45 196.39 5.98 196.74 5.60C197.09 5.22 197.51 4.91 198.00 4.72C198.49 4.52 199.02 4.41 199.61 4.41C200.21 4.41 200.75 4.52 201.24 4.72C201.73 4.91 202.15 5.22 202.50 5.60C202.85 5.98 203.11 6.45 203.31 7.00C203.50 7.55 203.59 8.18 203.59 8.86ZM221.17 3.92L220.54 3.92L219.32 3.92L219.32 4.19C219.32 4.34 219.42 4.42 219.60 4.44L219.74 4.44C219.81 4.44 219.93 4.45 220.07 4.45C220.21 4.45 220.37 4.47 220.54 4.47L220.54 12.22C220.54 12.35 220.54 12.49 220.56 12.63L214.14 4.05C214.10 3.99 214.07 3.95 214.03 3.93C213.99 3.92 213.95 3.91 213.88 3.91L213.53 3.91L212.34 3.91L212.34 4.19C212.34 4.34 212.44 4.42 212.62 4.44L212.76 4.44C212.83 4.44 212.93 4.45 213.07 4.45C213.21 4.45 213.36 4.47 213.53 4.47L213.53 13.26C213.36 13.26 213.21 13.27 213.07 13.27C212.93 13.27 212.83 13.29 212.76 13.29L212.62 13.29C212.44 13.30 212.34 13.38 212.34 13.54L212.34 13.82L213.53 13.82L214.14 13.82L215.36 13.82L215.36 13.54C215.36 13.38 215.26 13.30 215.08 13.29L214.94 13.29C214.87 13.29 214.75 13.27 214.61 13.27C214.47 13.27 214.31 13.26 214.14 13.26L214.14 5.49C214.14 5.36 214.14 5.22 214.13 5.08L220.57 13.68C220.64 13.78 220.71 13.82 220.82 13.82L221.17 13.82L221.17 4.47C221.34 4.47 221.48 4.45 221.62 4.45C221.76 4.45 221.87 4.44 221.94 4.44L222.07 4.44C222.25 4.42 222.35 4.34 222.35 4.19L222.35 3.92ZM246.99 4.68C246.40 4.17 245.52 3.92 244.36 3.92L241.95 3.92L240.76 3.92L240.76 4.19C240.76 4.34 240.86 4.42 241.04 4.44L241.18 4.44C241.25 4.44 241.35 4.45 241.49 4.45C241.63 4.45 241.78 4.47 241.95 4.47L241.95 13.26C241.78 13.26 241.63 13.27 241.49 13.27C241.35 13.27 241.25 13.29 241.18 13.29L241.04 13.29C240.86 13.30 240.76 13.38 240.76 13.54L240.76 13.82L241.95 13.82L242.66 13.82L243.84 13.82L243.84 13.54C243.84 13.38 243.74 13.30 243.56 13.29L243.43 13.29C243.36 13.29 243.25 13.27 243.11 13.27C242.97 13.27 242.83 13.26 242.66 13.26L242.66 9.83L244.36 9.83C244.90 9.83 245.39 9.74 245.83 9.60C246.26 9.45 246.62 9.25 246.93 8.99C247.24 8.72 247.48 8.41 247.63 8.05C247.80 7.69 247.87 7.29 247.87 6.86C247.87 5.92 247.58 5.18 246.99 4.68ZM246.96 7.81C246.83 8.11 246.65 8.36 246.41 8.57C246.18 8.78 245.88 8.95 245.53 9.07C245.18 9.20 244.79 9.25 244.36 9.25L242.66 9.25L242.66 4.48L244.36 4.48C245.28 4.48 245.98 4.69 246.46 5.10C246.92 5.50 247.16 6.09 247.16 6.85C247.16 7.20 247.09 7.52 246.96 7.81ZM265.33 8.86C265.33 8.11 265.20 7.41 264.98 6.79C264.75 6.17 264.43 5.64 264.01 5.19C263.59 4.75 263.10 4.40 262.53 4.16C261.95 3.92 261.30 3.79 260.60 3.79C259.90 3.79 259.27 3.92 258.69 4.16C258.12 4.40 257.61 4.75 257.19 5.19C256.77 5.64 256.45 6.17 256.23 6.79C256.00 7.41 255.88 8.11 255.88 8.86C255.88 9.63 256.00 10.33 256.23 10.95C256.45 11.56 256.77 12.10 257.19 12.54C257.61 12.99 258.12 13.33 258.69 13.57C259.27 13.80 259.90 13.93 260.60 13.93C261.30 13.93 261.95 13.80 262.53 13.57C263.10 13.33 263.59 12.99 264.01 12.54C264.43 12.10 264.75 11.56 264.98 10.95C265.20 10.33 265.33 9.63 265.33 8.86ZM264.57 8.86C264.57 9.56 264.49 10.18 264.29 10.72C264.10 11.27 263.83 11.75 263.48 12.12C263.13 12.50 262.71 12.81 262.22 13.01C261.73 13.20 261.20 13.30 260.60 13.30C260.01 13.30 259.48 13.20 258.99 13.01C258.50 12.81 258.08 12.50 257.73 12.12C257.38 11.75 257.10 11.27 256.90 10.72C256.70 10.18 256.62 9.56 256.62 8.86C256.62 8.18 256.70 7.55 256.90 7.00C257.10 6.45 257.38 5.98 257.73 5.60C258.08 5.22 258.50 4.91 258.99 4.72C259.48 4.52 260.01 4.41 260.60 4.41C261.20 4.41 261.73 4.52 262.22 4.72C262.71 4.91 263.13 5.22 263.48 5.60C263.83 5.98 264.10 6.45 264.29 7.00C264.49 7.55 264.57 8.18 264.57 8.86ZM276.42 4.44C276.60 4.42 276.68 4.34 276.68 4.19L276.68 3.91L275.51 3.91L274.79 3.91L273.60 3.91L273.60 4.19C273.60 4.34 273.70 4.42 273.88 4.44L274.02 4.44C274.09 4.44 274.19 4.45 274.33 4.45C274.47 4.45 274.62 4.47 274.79 4.47L274.79 13.26C274.62 13.26 274.47 13.27 274.33 13.27C274.19 13.27 274.09 13.29 274.02 13.29L273.88 13.29C273.70 13.30 273.60 13.38 273.60 13.54L273.60 13.82L274.79 13.82L275.51 13.82L276.68 13.82L276.68 13.54C276.68 13.38 276.60 13.30 276.42 13.29L276.28 13.29C276.21 13.29 276.11 13.27 275.97 13.27C275.83 13.27 275.67 13.26 275.51 13.26L275.51 4.47C275.67 4.47 275.83 4.45 275.97 4.45C276.11 4.45 276.21 4.44 276.28 4.44ZM293.86 3.92L293.23 3.92L292.01 3.92L292.01 4.19C292.01 4.34 292.11 4.42 292.29 4.44L292.43 4.44C292.50 4.44 292.61 4.45 292.75 4.45C292.89 4.45 293.06 4.47 293.23 4.47L293.23 12.22C293.23 12.35 293.23 12.49 293.24 12.63L286.83 4.05C286.79 3.99 286.76 3.95 286.72 3.93C286.68 3.92 286.64 3.91 286.57 3.91L286.22 3.91L285.03 3.91L285.03 4.19C285.03 4.34 285.12 4.42 285.31 4.44L285.45 4.44C285.52 4.44 285.61 4.45 285.75 4.45C285.89 4.45 286.05 4.47 286.22 4.47L286.22 13.26C286.05 13.26 285.89 13.27 285.75 13.27C285.61 13.27 285.52 13.29 285.45 13.29L285.31 13.29C285.12 13.30 285.03 13.38 285.03 13.54L285.03 13.82L286.22 13.82L286.83 13.82L288.05 13.82L288.05 13.54C288.05 13.38 287.95 13.30 287.77 13.29L287.63 13.29C287.56 13.29 287.43 13.27 287.29 13.27C287.15 13.27 287.00 13.26 286.83 13.26L286.83 5.49C286.83 5.36 286.83 5.22 286.82 5.08L293.26 13.68C293.33 13.78 293.40 13.82 293.51 13.82L293.86 13.82L293.86 4.47C294.03 4.47 294.17 4.45 294.31 4.45C294.45 4.45 294.56 4.44 294.63 4.44L294.76 4.44C294.94 4.42 295.04 4.34 295.04 4.19L295.04 3.92ZM310.59 3.92L310.39 3.92L303.10 3.92L302.89 3.92L302.79 3.92L302.79 5.96L303.14 5.96C303.34 5.96 303.42 5.85 303.44 5.63C303.44 5.53 303.46 5.17 303.49 4.52L306.39 4.52L306.39 13.26C306.22 13.26 306.08 13.27 305.94 13.27C305.80 13.27 305.69 13.29 305.62 13.29L305.49 13.29C305.31 13.30 305.21 13.38 305.21 13.54L305.21 13.82L306.39 13.82L307.10 13.82L308.29 13.82L308.29 13.54C308.29 13.38 308.20 13.30 308.01 13.29L307.87 13.29C307.80 13.29 307.71 13.27 307.57 13.27C307.43 13.27 307.27 13.26 307.10 13.26L307.10 4.52L309.99 4.52C310.03 5.24 310.04 5.60 310.04 5.63C310.06 5.85 310.16 5.96 310.35 5.96L310.69 5.96L310.69 3.92Z"></path></g></svg>