<svg data-v-fde0c5aa="" xmlns="http://www.w3.org/2000/svg" viewBox="0 0 300 300" class="font"><!----><defs data-v-fde0c5aa=""><!----></defs><rect data-v-fde0c5aa="" fill="#4D65F1" x="0" y="0" width="300px" height="300px" class="logo-background-square"></rect><defs data-v-fde0c5aa=""><!----></defs><g data-v-fde0c5aa="" id="9de4933d-a539-4c1c-96aa-a3fe5db0a9d9" fill="#ffffff" transform="matrix(2.772876356876437,0,0,2.772876356876437,36.61709076527812,131.0612546940876)"><path d="M4.45 12.04L1.22 12.04L1.22 1.91L3.32 1.91L3.32 1.91Q5.60 1.91 6.63 2.28L6.63 2.28L6.63 2.28Q8.10 2.79 8.93 4.06L8.93 4.06L8.93 4.06Q9.76 5.34 9.76 7.10L9.76 7.10L9.76 7.10Q9.76 8.62 9.10 9.78L9.10 9.78L9.10 9.78Q8.44 10.94 7.39 11.49L7.39 11.49L7.39 11.49Q6.34 12.04 4.45 12.04L4.45 12.04ZM2.19 2.89L2.19 11.08L3.36 11.08L3.36 11.08Q5.46 11.08 6.28 10.82L6.28 10.82L6.28 10.82Q7.42 10.45 8.08 9.48L8.08 9.48L8.08 9.48Q8.74 8.52 8.74 7.12L8.74 7.12L8.74 7.12Q8.74 5.65 8.03 4.61L8.03 4.61L8.03 4.61Q7.32 3.57 6.05 3.19L6.05 3.19L6.05 3.19Q5.09 2.89 2.91 2.89L2.91 2.89L2.19 2.89ZM17.87 9.42L17.87 9.42L18.68 9.85L18.68 9.85Q18.29 10.64 17.76 11.12L17.76 11.12L17.76 11.12Q17.23 11.59 16.58 11.84L16.58 11.84L16.58 11.84Q15.92 12.09 15.09 12.09L15.09 12.09L15.09 12.09Q13.26 12.09 12.23 10.89L12.23 10.89L12.23 10.89Q11.20 9.69 11.20 8.18L11.20 8.18L11.20 8.18Q11.20 6.75 12.07 5.64L12.07 5.64L12.07 5.64Q13.18 4.22 15.05 4.22L15.05 4.22L15.05 4.22Q16.95 4.22 18.10 5.67L18.10 5.67L18.10 5.67Q18.92 6.70 18.92 8.23L18.92 8.23L12.19 8.23L12.19 8.23Q12.22 9.54 13.02 10.38L13.02 10.38L13.02 10.38Q13.83 11.22 15.01 11.22L15.01 11.22L15.01 11.22Q15.59 11.22 16.13 11.02L16.13 11.02L16.13 11.02Q16.67 10.81 17.05 10.49L17.05 10.49L17.05 10.49Q17.42 10.16 17.87 9.42ZM12.29 7.40L17.87 7.40L17.87 7.40Q17.68 6.63 17.31 6.17L17.31 6.17L17.31 6.17Q16.94 5.71 16.33 5.42L16.33 5.42L16.33 5.42Q15.72 5.14 15.05 5.14L15.05 5.14L15.05 5.14Q13.95 5.14 13.16 5.85L13.16 5.85L13.16 5.85Q12.58 6.37 12.29 7.40L12.29 7.40ZM23.46 12.10L20.01 4.60L21.03 4.60L23.54 10.06L26.03 4.60L27.06 4.60L23.63 12.10L23.46 12.10ZM42.23 3.69L42.23 3.69L41.44 4.44L41.44 4.44Q40.59 3.60 39.58 3.17L39.58 3.17L39.58 3.17Q38.58 2.74 37.61 2.74L37.61 2.74L37.61 2.74Q36.42 2.74 35.35 3.33L35.35 3.33L35.35 3.33Q34.27 3.92 33.67 4.92L33.67 4.92L33.67 4.92Q33.08 5.91 33.08 6.82L33.08 6.82L33.08 6.82Q33.08 7.96 33.69 8.99L33.69 8.99L33.69 8.99Q34.31 10.02 35.39 10.61L35.39 10.61L35.39 10.61Q36.48 11.19 37.76 11.19L37.76 11.19L37.76 11.19Q39.32 11.19 40.40 10.31L40.40 10.31L40.40 10.31Q41.49 9.43 41.69 8.03L41.69 8.03L38.46 8.03L38.46 7.05L42.82 7.05L42.82 7.05Q42.81 9.40 41.43 10.78L41.43 10.78L41.43 10.78Q40.05 12.16 37.73 12.16L37.73 12.16L37.73 12.16Q34.92 12.16 33.28 10.25L33.28 10.25L33.28 10.25Q32.02 8.77 32.02 6.84L32.02 6.84L32.02 6.84Q32.02 5.39 32.74 4.27L32.74 4.27L32.74 4.27Q33.46 3.14 34.73 2.43L34.73 2.43L34.73 2.43Q35.99 1.73 37.58 1.73L37.58 1.73L37.58 1.73Q38.87 1.73 40.00 2.20L40.00 2.20L40.00 2.20Q41.14 2.67 42.23 3.69ZM48.13 4.22L48.13 4.22L48.13 4.22Q49.85 4.22 51.00 5.47L51.00 5.47L51.00 5.47Q52.05 6.61 52.05 8.18L52.05 8.18L52.05 8.18Q52.06 12.07 52.05 12.13L52.05 12.13L52.05 12.13Q51.39 12.13 51.03 12.13L51.03 12.13L51.03 12.13Q51.03 12.08 51.03 10.42L51.03 10.42L51.03 10.42Q50.23 11.92 48.13 12.09L48.13 12.09L48.13 12.09Q46.40 12.09 45.31 10.92L45.31 10.92L45.31 10.92Q44.22 9.75 44.22 8.18L44.22 8.18L44.22 8.18Q44.22 6.62 45.25 5.48L45.25 5.48L45.25 5.48Q46.40 4.22 48.13 4.22ZM48.13 5.16L48.13 5.16L48.13 5.16Q46.93 5.16 46.07 6.05L46.07 6.05L46.07 6.05Q45.21 6.94 45.21 8.20L45.21 8.20L45.21 8.20Q45.21 9.01 45.65 9.76L45.65 9.76L45.65 9.76Q46.09 10.51 47.14 11.03L47.14 11.03L47.14 11.03Q49.78 11.62 50.89 8.63L50.89 8.63L50.89 8.63Q50.96 7.68 50.69 6.80L50.69 6.80L50.69 6.80Q50.50 6.41 50.16 6.05L50.16 6.05L50.16 6.05Q49.32 5.16 48.13 5.16ZM54.52 10.63L54.52 10.63L54.52 10.63Q53.91 9.60 53.79 8.61L53.79 8.61L53.79 8.61Q53.79 1.50 53.79 1.51L53.79 1.51L54.74 1.51L54.74 5.69L54.74 5.69Q55.35 4.95 56.10 4.58L56.10 4.58L56.10 4.58Q56.85 4.22 57.75 4.22L57.75 4.22L57.75 4.22Q59.34 4.22 60.46 5.37L60.46 5.37L60.46 5.37Q61.59 6.53 61.59 8.18L61.59 8.18L61.59 8.18Q61.59 9.80 60.46 10.94L60.46 10.94L60.46 10.94Q59.32 12.09 57.72 12.09L57.72 12.09L57.72 12.09Q56.81 12.09 56.00 11.74L56.00 11.74L56.00 11.74Q55.20 11.39 54.52 10.63ZM57.64 11.17L57.64 11.17L57.64 11.17Q58.45 11.17 59.13 10.77L59.13 10.77L59.13 10.77Q59.81 10.37 60.22 9.66L60.22 9.66L60.22 9.66Q60.62 8.95 60.62 8.14L60.62 8.14L60.62 8.14Q60.62 7.35 60.21 6.62L60.21 6.62L60.21 6.62Q59.81 5.89 59.12 5.49L59.12 5.49L59.12 5.49Q58.43 5.09 57.65 5.09L57.65 5.09L57.65 5.09Q56.86 5.09 56.15 5.49L56.15 5.49L56.15 5.49Q55.44 5.89 55.06 6.58L55.06 6.58L55.06 6.58Q54.67 7.27 54.67 8.11L54.67 8.11L54.67 8.11Q54.67 9.42 55.54 10.29L55.54 10.29L55.54 10.29Q56.40 11.17 57.64 11.17ZM63.16 12.07L63.16 8.65L63.16 7.75L63.16 7.75Q63.27 7.08 63.47 6.65L63.47 6.65L63.47 6.65Q63.95 5.48 64.76 4.93L64.76 4.93L64.76 4.93Q65.56 4.38 66.10 4.38L66.10 4.38L66.10 4.38Q66.49 4.38 66.94 4.64L66.94 4.64L66.45 5.45L66.45 5.45Q65.81 5.22 65.18 5.82L65.18 5.82L65.18 5.82Q64.56 6.43 64.32 7.15L64.32 7.15L64.32 7.15Q64.14 7.79 64.14 9.54L64.14 9.54L64.14 12.07L63.16 12.07ZM68.10 1.50L68.10 1.50L68.10 1.50Q68.43 1.50 68.66 1.74L68.66 1.74L68.66 1.74Q68.90 1.97 68.90 2.30L68.90 2.30L68.90 2.30Q68.90 2.63 68.66 2.86L68.66 2.86L68.66 2.86Q68.43 3.10 68.10 3.10L68.10 3.10L68.10 3.10Q67.77 3.10 67.54 2.86L67.54 2.86L67.54 2.86Q67.31 2.63 67.31 2.30L67.31 2.30L67.31 2.30Q67.31 1.97 67.54 1.74L67.54 1.74L67.54 1.74Q67.77 1.50 68.10 1.50ZM67.62 12.09L67.62 4.59L68.58 4.59L68.58 12.09L67.62 12.09ZM76.89 9.42L76.89 9.42L77.70 9.85L77.70 9.85Q77.31 10.64 76.78 11.12L76.78 11.12L76.78 11.12Q76.25 11.59 75.60 11.84L75.60 11.84L75.60 11.84Q74.94 12.09 74.12 12.09L74.12 12.09L74.12 12.09Q72.28 12.09 71.25 10.89L71.25 10.89L71.25 10.89Q70.22 9.69 70.22 8.18L70.22 8.18L70.22 8.18Q70.22 6.75 71.09 5.64L71.09 5.64L71.09 5.64Q72.20 4.22 74.07 4.22L74.07 4.22L74.07 4.22Q75.97 4.22 77.12 5.67L77.12 5.67L77.12 5.67Q77.94 6.70 77.94 8.23L77.94 8.23L71.21 8.23L71.21 8.23Q71.24 9.54 72.04 10.38L72.04 10.38L72.04 10.38Q72.85 11.22 74.03 11.22L74.03 11.22L74.03 11.22Q74.61 11.22 75.15 11.02L75.15 11.02L75.15 11.02Q75.69 10.81 76.07 10.49L76.07 10.49L76.07 10.49Q76.45 10.16 76.89 9.42ZM71.31 7.40L76.89 7.40L76.89 7.40Q76.70 6.63 76.33 6.17L76.33 6.17L76.33 6.17Q75.96 5.71 75.35 5.42L75.35 5.42L75.35 5.42Q74.74 5.14 74.07 5.14L74.07 5.14L74.07 5.14Q72.97 5.14 72.18 5.85L72.18 5.85L72.18 5.85Q71.61 6.37 71.31 7.40L71.31 7.40ZM79.59 12.09L79.59 1.69L80.56 1.69L80.56 12.09L79.59 12.09Z"></path></g><!----><!----></svg>