<svg width="225" height="44" viewBox="0 0 225 44" fill="none" xmlns="http://www.w3.org/2000/svg">
<path d="M64.3012 31.0728H58V12.7419H62.0967C65.062 12.7419 67.2144 12.9651 68.554 13.4115C70.4658 14.0267 71.9614 15.1004 73.0409 16.6325C74.1204 18.1766 74.6601 20.0103 74.6601 22.1336C74.6601 23.9672 74.2309 25.5838 73.3725 26.9832C72.5142 28.3826 71.4022 29.414 70.0366 30.0775C68.671 30.741 66.7592 31.0728 64.3012 31.0728ZM59.8923 14.5153V29.3356H62.1748C64.9059 29.3356 66.8048 29.1788 67.8712 28.8651C69.3538 28.4188 70.5243 27.6105 71.3827 26.4403C72.2411 25.2822 72.6702 23.8587 72.6702 22.1697C72.6702 20.3964 72.2085 18.8824 71.2852 17.6277C70.3618 16.3731 69.0742 15.5166 67.4225 15.0582C66.174 14.6962 64.1321 14.5153 61.2969 14.5153H59.8923ZM90.4813 26.3317L92.0615 27.1099C91.5543 28.0629 90.956 28.8289 90.2667 29.408C89.5774 29.975 88.8101 30.4093 87.9648 30.7109C87.1064 31.0125 86.1375 31.1633 85.058 31.1633C82.678 31.1633 80.8182 30.4395 79.4786 28.9918C78.1391 27.5442 77.4693 25.9095 77.4693 24.0879C77.4693 22.3628 78.035 20.8307 79.1665 19.4916C80.6101 17.7785 82.548 16.922 84.98 16.922C87.451 16.922 89.4344 17.7966 90.93 19.5459C91.9965 20.7884 92.5297 22.3326 92.5297 24.1784H79.4006C79.4396 25.7587 79.9794 27.0556 81.0198 28.0689C82.0733 29.0823 83.3673 29.589 84.902 29.589C85.6563 29.589 86.3846 29.4683 87.0869 29.227C87.7892 28.9737 88.3874 28.654 88.8816 28.268C89.3629 27.8699 89.8961 27.2245 90.4813 26.3317ZM79.5957 22.6764H90.4813C90.2342 21.7475 89.8701 21.0056 89.3889 20.4507C88.9077 19.8957 88.2704 19.4433 87.4771 19.0935C86.6837 18.7557 85.8514 18.5868 84.98 18.5868C83.5494 18.5868 82.3204 19.0151 81.2929 19.8716C80.5386 20.4989 79.9729 21.4339 79.5957 22.6764ZM101.386 31.1814L94.6561 17.6096H96.646L101.543 27.4899L106.4 17.6096H108.409L101.718 31.1814H101.386ZM138.004 15.9629L136.462 17.3201C135.357 16.3068 134.147 15.5407 132.834 15.022C131.533 14.5032 130.252 14.2439 128.991 14.2439C127.443 14.2439 125.973 14.5997 124.582 15.3115C123.177 16.0233 122.085 16.9823 121.304 18.1887C120.537 19.383 120.153 20.5291 120.153 21.6269C120.153 23.0021 120.55 24.3111 121.343 25.5536C122.15 26.7962 123.255 27.7734 124.66 28.4851C126.077 29.1848 127.619 29.5347 129.283 29.5347C131.312 29.5347 133.029 29.0039 134.434 27.9423C135.851 26.8806 136.69 25.5054 136.95 23.8165H130.649V22.0431H139.155C139.142 24.8781 138.238 27.128 136.443 28.7927C134.648 30.4575 132.242 31.2899 129.225 31.2899C125.57 31.2899 122.677 30.1379 120.544 27.8337C118.905 26.0482 118.086 23.9914 118.086 21.6631C118.086 19.9138 118.554 18.3636 119.49 17.0125C120.427 15.6493 121.721 14.5394 123.372 13.6829C125.011 12.8384 126.864 12.4162 128.932 12.4162C130.61 12.4162 132.184 12.6997 133.653 13.2667C135.136 13.8337 136.586 14.7324 138.004 15.9629ZM149.513 16.922C151.75 16.922 153.617 17.676 155.112 19.184C156.478 20.5592 157.161 22.1939 157.161 24.0879C157.174 28.7807 157.174 31.1633 157.161 31.2357C156.302 31.2357 155.639 31.2357 155.171 31.2357C155.171 31.1753 155.171 30.1439 155.171 28.1413C154.13 29.9509 152.245 30.9582 149.513 31.1633C147.264 31.1633 145.43 30.4576 144.012 29.0461C142.595 27.6346 141.886 25.9819 141.886 24.0879C141.886 22.2059 142.556 20.5773 143.895 19.2021C145.391 17.682 147.264 16.922 149.513 16.922ZM149.513 18.623C147.953 18.623 146.613 19.1598 145.495 20.2335C144.376 21.3072 143.817 22.604 143.817 24.1241C143.817 25.1012 144.103 26.0422 144.675 26.947C145.248 27.8518 146.217 28.6178 147.582 29.2451C151.016 29.9569 153.454 28.5093 154.898 24.9022C154.989 23.7561 154.859 22.6523 154.508 21.5907C154.26 21.1202 153.916 20.6678 153.474 20.2335C152.381 19.1598 151.061 18.623 149.513 18.623ZM161.979 28.5213C161.186 27.2787 160.711 26.0603 160.555 24.866C160.555 16.2887 160.555 12.006 160.555 12.0181H162.408V19.5821C163.202 18.6894 164.086 18.0198 165.062 17.5735C166.037 17.1392 167.11 16.922 168.28 16.922C170.348 16.922 172.111 17.6157 173.567 19.003C175.037 20.4024 175.772 22.0974 175.772 24.0879C175.772 26.0422 175.037 27.707 173.567 29.0823C172.085 30.4696 170.303 31.1633 168.222 31.1633C167.038 31.1633 165.92 30.9522 164.867 30.5299C163.826 30.1077 162.864 29.4382 161.979 28.5213ZM168.066 29.4985C169.119 29.4985 170.088 29.2572 170.973 28.7747C171.857 28.2921 172.566 27.6226 173.099 26.766C173.619 25.9095 173.879 24.9927 173.879 24.0155C173.879 23.0625 173.613 22.1456 173.079 21.265C172.559 20.3843 171.85 19.7027 170.953 19.2202C170.056 18.7376 169.1 18.4963 168.085 18.4963C167.058 18.4963 166.083 18.7376 165.159 19.2202C164.236 19.7027 163.527 20.3602 163.033 21.1926C162.526 22.025 162.272 22.9479 162.272 23.9612C162.272 25.5416 162.838 26.8565 163.969 27.9061C165.088 28.9677 166.453 29.4985 168.066 29.4985ZM178.834 31.1271V24.9384V23.3098C178.978 22.5015 179.179 21.838 179.439 21.3193C180.063 19.9078 180.902 18.8703 181.956 18.2068C182.996 17.5433 183.868 17.2115 184.57 17.2115C185.077 17.2115 185.623 17.3684 186.209 17.682L185.253 19.1478C184.42 18.8703 183.594 19.0935 182.775 19.8173C181.969 20.5532 181.41 21.3554 181.097 22.224C180.863 22.9961 180.746 24.4377 180.746 26.5489V31.1271H178.834ZM188.472 12C188.901 12 189.265 12.1448 189.564 12.4343C189.876 12.7118 190.032 13.0495 190.032 13.4477C190.032 13.8458 189.876 14.1835 189.564 14.461C189.265 14.7505 188.901 14.8953 188.472 14.8953C188.042 14.8953 187.678 14.7505 187.379 14.461C187.08 14.1835 186.93 13.8458 186.93 13.4477C186.93 13.0495 187.08 12.7118 187.379 12.4343C187.678 12.1448 188.042 12 188.472 12ZM187.535 31.1633V17.5916H189.408V31.1633H187.535ZM205.619 26.3317L207.2 27.1099C206.692 28.0629 206.094 28.8289 205.405 29.408C204.715 29.975 203.948 30.4093 203.103 30.7109C202.244 31.0125 201.282 31.1633 200.216 31.1633C197.823 31.1633 195.956 30.4395 194.617 28.9918C193.277 27.5442 192.607 25.9095 192.607 24.0879C192.607 22.3628 193.173 20.8307 194.305 19.4916C195.748 17.7785 197.686 16.922 200.118 16.922C202.589 16.922 204.572 17.7966 206.068 19.5459C207.135 20.7884 207.668 22.3326 207.668 24.1784H194.539C194.578 25.7587 195.117 27.0556 196.158 28.0689C197.211 29.0823 198.505 29.589 200.04 29.589C200.794 29.589 201.523 29.4683 202.225 29.227C202.927 28.9737 203.525 28.654 204.02 28.268C204.514 27.8699 205.047 27.2245 205.619 26.3317ZM194.734 22.6764H205.619C205.372 21.7475 205.008 21.0056 204.527 20.4507C204.046 19.8957 203.408 19.4433 202.615 19.0935C201.822 18.7557 200.989 18.5868 200.118 18.5868C198.687 18.5868 197.458 19.0151 196.431 19.8716C195.69 20.4989 195.124 21.4339 194.734 22.6764ZM210.887 31.1633V12.3438H212.779V31.1633H210.887Z" fill="#fff"/>
<path d="M45.2134 19.8294C44.7603 16.654 43.7535 13.712 41.9411 10.9569C39.6253 7.54791 36.202 4.60594 32.2248 2.97152C32.3255 3.01822 32.4262 3.06492 32.5772 3.11161C27.6436 0.916815 22.0051 0.403139 16.7191 1.71068C12.4399 2.78473 8.61379 5.02623 5.64353 8.10828C0.860905 13.1517 -1.10249 20.3898 0.609188 26.9275C1.96846 31.9709 5.19043 36.2671 9.72134 39.3024C13.0943 41.4505 17.0715 42.7581 21.1493 43.0383C25.8312 43.3185 30.5132 42.2444 34.4903 39.9562C38.8702 37.4345 41.9914 33.6987 43.9045 29.3091C45.2134 26.3671 45.5155 22.9582 45.2134 19.8294ZM43.7031 20.9502C43.4011 24.4525 41.8908 27.7681 39.1219 30.1964C36.5544 32.4846 33.131 33.7921 29.607 34.119C21.9044 34.8195 13.9502 30.7567 10.3758 24.3591C7.40554 18.9889 7.50623 11.9375 11.7351 7.12763C14.0005 4.55925 17.2728 2.97152 20.7465 2.41115C25.3278 1.61728 29.9594 2.55124 33.9365 4.79274C39.9274 8.10828 44.2569 14.3658 43.7031 20.9502C44.4583 11.9842 42.5452 34.7261 43.7031 20.9502Z" fill="#fff"/>
</svg>
