<svg width="225" height="44" viewBox="0 0 225 44" fill="none" xmlns="http://www.w3.org/2000/svg">
<path d="M71.1889 22.5021H64.8878V4.17123H68.9845C71.9498 4.17123 74.1022 4.39441 75.4418 4.84077C77.3536 5.45602 78.8492 6.52969 79.9287 8.06179C81.0081 9.60595 81.5479 11.4396 81.5479 13.5629C81.5479 15.3966 81.1187 17.0131 80.2603 18.4125C79.4019 19.8119 78.29 20.8433 76.9244 21.5068C75.5588 22.1704 73.647 22.5021 71.1889 22.5021ZM66.7801 5.9446V20.7649H69.0625C71.7937 20.7649 73.6925 20.6081 74.759 20.2944C76.2416 19.8481 77.4121 19.0398 78.2705 17.8696C79.1288 16.7115 79.558 15.288 79.558 13.5991C79.558 11.8257 79.0963 10.3117 78.1729 9.05705C77.2495 7.80242 75.962 6.94589 74.3103 6.48747C73.0617 6.12556 71.0199 5.9446 68.1847 5.9446H66.7801ZM97.3691 17.7611L98.9493 18.5392C98.4421 19.4922 97.8438 20.2582 97.1545 20.8373C96.4652 21.4043 95.6979 21.8386 94.8525 22.1402C93.9942 22.4418 93.0252 22.5926 91.9458 22.5926C89.5658 22.5926 87.706 21.8688 86.3664 20.4211C85.0268 18.9735 84.3571 17.3388 84.3571 15.5172C84.3571 13.7921 84.9228 12.26 86.0543 10.9209C87.4979 9.20785 89.4357 8.35132 91.8678 8.35132C94.3388 8.35132 96.3222 9.22594 97.8178 10.9752C98.8842 12.2178 99.4175 13.7619 99.4175 15.6077H86.2884C86.3274 17.188 86.8671 18.4849 87.9076 19.4982C88.961 20.5116 90.2551 21.0183 91.7897 21.0183C92.544 21.0183 93.2723 20.8976 93.9746 20.6564C94.6769 20.403 95.2752 20.0833 95.7694 19.6973C96.2506 19.2992 96.7838 18.6538 97.3691 17.7611ZM86.4835 14.1057H97.3691C97.122 13.1768 96.7578 12.4349 96.2766 11.88C95.7954 11.325 95.1582 10.8726 94.3648 10.5228C93.5715 10.185 92.7391 10.0161 91.8678 10.0161C90.4371 10.0161 89.2081 10.4444 88.1807 11.3009C87.4264 11.9282 86.8606 12.8632 86.4835 14.1057ZM108.274 22.6107L101.544 9.03895H103.534L108.43 18.9192L113.288 9.03895H115.297L108.606 22.6107H108.274ZM144.891 7.39225L143.35 8.74942C142.245 7.73607 141.035 6.97002 139.722 6.45128C138.421 5.93254 137.14 5.67316 135.878 5.67316C134.331 5.67316 132.861 6.02905 131.47 6.74081C130.065 7.45257 128.973 8.41164 128.192 9.61801C127.425 10.8123 127.041 11.9584 127.041 13.0562C127.041 14.4315 127.438 15.7404 128.231 16.9829C129.038 18.2255 130.143 19.2027 131.548 19.9144C132.965 20.6141 134.506 20.964 136.171 20.964C138.2 20.964 139.917 20.4332 141.321 19.3716C142.739 18.31 143.578 16.9347 143.838 15.2458H137.537V13.4724H146.042C146.029 16.3074 145.125 18.5573 143.331 20.2221C141.536 21.8869 139.13 22.7193 136.113 22.7193C132.458 22.7193 129.564 21.5672 127.431 19.263C125.793 17.4776 124.973 15.4207 124.973 13.0924C124.973 11.3431 125.442 9.79294 126.378 8.4418C127.314 7.07859 128.608 5.96873 130.26 5.1122C131.899 4.26774 133.752 3.84551 135.82 3.84551C137.498 3.84551 139.071 4.129 140.541 4.696C142.024 5.263 143.474 6.16175 144.891 7.39225ZM156.401 8.35132C158.638 8.35132 160.504 9.1053 162 10.6133C163.366 11.9885 164.048 13.6232 164.048 15.5172C164.061 20.21 164.061 22.5926 164.048 22.665C163.19 22.665 162.527 22.665 162.059 22.665C162.059 22.6046 162.059 21.5732 162.059 19.5706C161.018 21.3802 159.132 22.3875 156.401 22.5926C154.151 22.5926 152.317 21.8869 150.9 20.4754C149.482 19.0639 148.773 17.4112 148.773 15.5172C148.773 13.6352 149.443 12.0066 150.783 10.6314C152.278 9.11134 154.151 8.35132 156.401 8.35132ZM156.401 10.0523C154.841 10.0523 153.501 10.5891 152.383 11.6628C151.264 12.7365 150.705 14.0333 150.705 15.5534C150.705 16.5305 150.991 17.4715 151.563 18.3763C152.135 19.2811 153.104 20.0471 154.47 20.6744C157.903 21.3862 160.342 19.9386 161.786 16.3315C161.877 15.1854 161.747 14.0816 161.395 13.02C161.148 12.5495 160.804 12.0971 160.361 11.6628C159.269 10.5891 157.949 10.0523 156.401 10.0523ZM168.867 19.9506C168.074 18.7081 167.599 17.4896 167.443 16.2953C167.443 7.71797 167.443 3.43534 167.443 3.4474H169.296V11.0114C170.09 10.1187 170.974 9.44912 171.949 9.00276C172.925 8.56847 173.998 8.35132 175.168 8.35132C177.236 8.35132 178.998 9.04499 180.455 10.4323C181.925 11.8317 182.659 13.5267 182.659 15.5172C182.659 17.4715 181.925 19.1363 180.455 20.5116C178.972 21.8989 177.191 22.5926 175.11 22.5926C173.926 22.5926 172.808 22.3815 171.754 21.9592C170.714 21.537 169.751 20.8675 168.867 19.9506ZM174.954 20.9278C176.007 20.9278 176.976 20.6865 177.86 20.204C178.745 19.7214 179.454 19.0519 179.987 18.1953C180.507 17.3388 180.767 16.422 180.767 15.4448C180.767 14.4918 180.5 13.5749 179.967 12.6943C179.447 11.8136 178.738 11.132 177.841 10.6495C176.943 10.1669 175.988 9.92564 174.973 9.92564C173.946 9.92564 172.97 10.1669 172.047 10.6495C171.124 11.132 170.415 11.7895 169.92 12.6219C169.413 13.4543 169.16 14.3772 169.16 15.3905C169.16 16.9709 169.725 18.2858 170.857 19.3354C171.975 20.397 173.341 20.9278 174.954 20.9278ZM185.722 22.5564V16.3677V14.7391C185.865 13.9308 186.067 13.2673 186.327 12.7486C186.951 11.3371 187.79 10.2996 188.844 9.63611C189.884 8.9726 190.755 8.64085 191.458 8.64085C191.965 8.64085 192.511 8.79768 193.096 9.11134L192.14 10.5771C191.308 10.2996 190.482 10.5228 189.663 11.2466C188.857 11.9825 188.297 12.7848 187.985 13.6533C187.751 14.4254 187.634 15.867 187.634 17.9782V22.5564H185.722ZM195.359 3.42931C195.788 3.42931 196.153 3.57407 196.452 3.8636C196.764 4.14107 196.92 4.47885 196.92 4.87696C196.92 5.27506 196.764 5.61285 196.452 5.89031C196.153 6.17984 195.788 6.32461 195.359 6.32461C194.93 6.32461 194.566 6.17984 194.267 5.89031C193.968 5.61285 193.818 5.27506 193.818 4.87696C193.818 4.47885 193.968 4.14107 194.267 3.8636C194.566 3.57407 194.93 3.42931 195.359 3.42931ZM194.423 22.5926V9.02086H196.296V22.5926H194.423ZM212.507 17.7611L214.087 18.5392C213.58 19.4922 212.982 20.2582 212.293 20.8373C211.603 21.4043 210.836 21.8386 209.991 22.1402C209.132 22.4418 208.17 22.5926 207.103 22.5926C204.71 22.5926 202.844 21.8688 201.504 20.4211C200.165 18.9735 199.495 17.3388 199.495 15.5172C199.495 13.7921 200.061 12.26 201.192 10.9209C202.636 9.20785 204.574 8.35132 207.006 8.35132C209.477 8.35132 211.46 9.22594 212.956 10.9752C214.022 12.2178 214.555 13.7619 214.555 15.6077H201.426C201.465 17.188 202.005 18.4849 203.046 19.4982C204.099 20.5116 205.393 21.0183 206.928 21.0183C207.682 21.0183 208.41 20.8976 209.113 20.6564C209.815 20.403 210.413 20.0833 210.907 19.6973C211.402 19.2992 211.935 18.6538 212.507 17.7611ZM201.621 14.1057H212.507C212.26 13.1768 211.896 12.4349 211.415 11.88C210.933 11.325 210.296 10.8726 209.503 10.5228C208.71 10.185 207.877 10.0161 207.006 10.0161C205.575 10.0161 204.346 10.4444 203.319 11.3009C202.577 11.9282 202.012 12.8632 201.621 14.1057ZM217.774 22.5926V3.77312H219.667V22.5926H217.774Z" fill="white"/>
<path d="M52.2134 19.8294C51.7603 16.654 50.7535 13.712 48.9411 10.9569C46.6253 7.54791 43.202 4.60594 39.2248 2.97152C39.3255 3.01822 39.4262 3.06492 39.5772 3.11161C34.6436 0.916815 29.0051 0.403139 23.7191 1.71068C19.4399 2.78473 15.6138 5.02623 12.6435 8.10828C7.8609 13.1517 5.89751 20.3898 7.60919 26.9275C8.96846 31.9709 12.1904 36.2671 16.7213 39.3024C20.0943 41.4505 24.0715 42.7581 28.1493 43.0383C32.8312 43.3185 37.5132 42.2444 41.4903 39.9562C45.8702 37.4345 48.9914 33.6987 50.9045 29.3091C52.2134 26.3671 52.5155 22.9582 52.2134 19.8294ZM50.7031 20.9502C50.4011 24.4525 48.8908 27.7681 46.1219 30.1964C43.5544 32.4846 40.131 33.7921 36.607 34.119C28.9044 34.8194 20.9502 30.7567 17.3758 24.3591C14.4055 18.9889 14.5062 11.9375 18.7351 7.12763C21.0005 4.55925 24.2728 2.97152 27.7465 2.41115C32.3278 1.61728 36.9594 2.55124 40.9365 4.79274C46.9274 8.10828 51.2569 14.3658 50.7031 20.9502C49.5452 34.7261 51.4583 11.9842 50.7031 20.9502V20.9502Z" fill="white"/>
<path d="M69.3815 33.08C69.2716 32.7975 69.1119 32.5613 68.9022 32.3621C68.6925 32.163 68.4478 32.0055 68.1582 31.9036C67.8736 31.7971 67.5441 31.7461 67.1945 31.7461H65.4819H64.8878V31.8712C64.8878 31.9407 64.9377 31.9777 65.0276 31.987H65.0975C65.1324 31.987 65.1824 31.9916 65.2523 31.9916C65.3222 31.9916 65.3971 32.0009 65.4819 32.0009V36.0719C65.3971 36.0719 65.3222 36.0766 65.2523 36.0766C65.1824 36.0766 65.1324 36.0858 65.0975 36.0858H65.0276C64.9377 36.0905 64.8878 36.1275 64.8878 36.2016V36.3313H65.4819H67.1945C67.5441 36.3313 67.8736 36.2804 68.1582 36.1738C68.4478 36.0719 68.6925 35.9145 68.9022 35.7153C69.1119 35.5115 69.2716 35.2753 69.3815 34.9882C69.4963 34.701 69.5562 34.3907 69.5562 34.0341C69.5562 33.6867 69.4963 33.3672 69.3815 33.08ZM69.042 34.8955C68.9421 35.1503 68.8173 35.3587 68.6425 35.5347C68.4678 35.7061 68.2581 35.8357 68.0134 35.9284C67.7687 36.021 67.4941 36.0627 67.1945 36.0627H65.8364V32.0101H67.1945C67.4941 32.0101 67.7687 32.0564 68.0134 32.1491C68.2581 32.2371 68.4678 32.3668 68.6425 32.5428C68.8173 32.7187 68.9421 32.9272 69.042 33.1773C69.1368 33.432 69.1868 33.7191 69.1868 34.0341C69.1868 34.3583 69.1368 34.6454 69.042 34.8955ZM74.2896 31.7461H73.6955V31.8712C73.6955 31.9407 73.7454 31.9777 73.8353 31.987H73.9052C73.9401 31.987 73.9901 31.9916 74.06 31.9916C74.1299 31.9916 74.2048 32.0009 74.2896 32.0009V36.0719C74.2048 36.0719 74.1299 36.0766 74.06 36.0766C73.9901 36.0766 73.9401 36.0858 73.9052 36.0858H73.8353C73.7454 36.0905 73.7005 36.1275 73.7005 36.2016V36.3313H74.2896H77.2555V36.0534V35.3772H77.0807C76.9809 35.3772 76.9409 35.4374 76.9309 35.5393C76.9309 35.5532 76.926 35.5764 76.926 35.6227C76.926 35.669 76.926 35.7338 76.916 35.8311C76.911 35.9284 76.906 35.9932 76.906 36.0534H74.6441V34.1406H76.6164V33.872H74.6441V32.0194H76.906C76.916 32.3019 76.9309 32.4779 76.9309 32.5381C76.9409 32.64 76.9809 32.691 77.0807 32.691H77.2555V32.0194V31.7461H74.2896ZM85.9833 31.7461H85.7037H85.6887H84.9547V31.8712C84.9547 31.9407 84.9997 31.9777 85.0896 31.987H85.1545C85.1794 31.987 85.2244 31.9916 85.2843 31.9916C85.3492 31.9916 85.4191 32.0009 85.494 32.0009L83.8962 35.6366C83.8513 35.7338 83.8163 35.8357 83.7914 35.9562C83.7614 35.845 83.7265 35.7338 83.6865 35.6366L82.0688 32.0009C82.1487 32.0009 82.2236 31.9916 82.2885 31.9916C82.3484 31.9916 82.3933 31.987 82.4183 31.987H82.4732C82.5681 31.9777 82.613 31.9407 82.613 31.8712V31.7461H81.8691H81.5894H81.2849V31.8712C81.2849 31.9407 81.3348 31.9777 81.4247 31.987H81.4746C81.4946 31.987 81.5295 31.9916 81.5645 31.9916C81.5994 31.9916 81.6494 32.0009 81.6993 32.0009L83.6266 36.3313H83.9412L85.8735 32.0009C85.9234 32.0009 85.9683 31.9916 86.0033 31.9916C86.0382 31.9916 86.0732 31.987 86.0982 31.987H86.1381C86.228 31.9777 86.2779 31.9407 86.2779 31.8712V31.7461H85.9833ZM90.8915 31.7461H90.2973V31.8712C90.2973 31.9407 90.3472 31.9777 90.4371 31.987H90.507C90.5419 31.987 90.5919 31.9916 90.6618 31.9916C90.7317 31.9916 90.8066 32.0009 90.8915 32.0009V36.0719C90.8066 36.0719 90.7317 36.0766 90.6618 36.0766C90.5919 36.0766 90.5419 36.0858 90.507 36.0858H90.4371C90.3472 36.0905 90.3023 36.1275 90.3023 36.2016V36.3313H90.8915H93.8573V36.0534V35.3772H93.6826C93.5827 35.3772 93.5428 35.4374 93.5328 35.5393C93.5328 35.5532 93.5278 35.5764 93.5278 35.6227C93.5278 35.669 93.5278 35.7338 93.5178 35.8311C93.5128 35.9284 93.5078 35.9932 93.5078 36.0534H91.246V34.1406H93.2182V33.872H91.246V32.0194H93.5078C93.5178 32.3019 93.5328 32.4779 93.5328 32.5381C93.5428 32.64 93.5827 32.691 93.6826 32.691H93.8573V32.0194V31.7461H90.8915ZM101.322 35.4745C101.222 35.4745 101.182 35.5254 101.172 35.6319C101.172 35.6366 101.172 35.6644 101.167 35.6875C101.162 35.7153 101.162 35.7616 101.152 35.8172C101.147 35.8774 101.137 35.9562 101.132 36.0441H99.09V32.0009C99.1749 32.0009 99.2448 31.9916 99.3147 31.9916C99.3846 31.9916 99.4395 31.987 99.4745 31.987H99.5394C99.6293 31.9777 99.6792 31.9407 99.6792 31.8712V31.7461H99.09H98.7355H98.1413V31.8712C98.1413 31.9407 98.1913 31.9777 98.2811 31.987H98.351C98.386 31.987 98.4359 31.9916 98.5058 31.9916C98.5757 31.9916 98.6506 32.0009 98.7355 32.0009V36.0719C98.6506 36.0719 98.5757 36.0766 98.5058 36.0766C98.4359 36.0766 98.386 36.0858 98.351 36.0858H98.2811C98.1913 36.0905 98.1413 36.1275 98.1413 36.2016V36.3313H98.7355H101.372H101.432H101.497V36.2063V35.9469V35.4745H101.357H101.322ZM110.05 34.0341C110.05 33.6867 109.99 33.3625 109.875 33.0754C109.765 32.7882 109.605 32.5428 109.396 32.3343C109.186 32.1306 108.941 31.9684 108.652 31.8573C108.367 31.7461 108.038 31.6859 107.688 31.6859C107.338 31.6859 107.024 31.7461 106.739 31.8573C106.45 31.9684 106.2 32.1306 105.99 32.3343C105.781 32.5428 105.621 32.7882 105.506 33.0754C105.396 33.3625 105.331 33.6867 105.331 34.0341C105.331 34.3907 105.396 34.7149 105.506 35.0021C105.621 35.2846 105.781 35.5347 105.99 35.7385C106.2 35.9469 106.45 36.1044 106.739 36.2155C107.024 36.322 107.338 36.3822 107.688 36.3822C108.038 36.3822 108.367 36.322 108.652 36.2155C108.941 36.1044 109.186 35.9469 109.396 35.7385C109.605 35.5347 109.765 35.2846 109.875 35.0021C109.99 34.7149 110.05 34.3907 110.05 34.0341ZM109.675 34.0341C109.675 34.3583 109.63 34.6454 109.535 34.8955C109.436 35.1503 109.306 35.3726 109.131 35.544C108.956 35.7199 108.747 35.8635 108.502 35.9562C108.257 36.0442 107.988 36.0905 107.688 36.0905C107.393 36.0905 107.129 36.0442 106.884 35.9562C106.639 35.8635 106.43 35.7199 106.255 35.544C106.08 35.3726 105.94 35.1503 105.846 34.8955C105.746 34.6454 105.706 34.3583 105.706 34.0341C105.706 33.7191 105.746 33.4274 105.846 33.1726C105.94 32.9179 106.08 32.7002 106.255 32.5242C106.43 32.3482 106.639 32.2047 106.884 32.1167C107.129 32.024 107.393 31.9731 107.688 31.9731C107.988 31.9731 108.257 32.024 108.502 32.1167C108.747 32.2047 108.956 32.3482 109.131 32.5242C109.306 32.7002 109.436 32.9179 109.535 33.1726C109.63 33.4274 109.675 33.7191 109.675 34.0341ZM117.295 32.0981C117 31.8619 116.561 31.7461 115.981 31.7461H114.778H114.184V31.8712C114.184 31.9407 114.234 31.9777 114.324 31.987H114.394C114.429 31.987 114.479 31.9916 114.548 31.9916C114.618 31.9916 114.693 32.0009 114.778 32.0009V36.0719C114.693 36.0719 114.618 36.0766 114.548 36.0766C114.479 36.0766 114.429 36.0858 114.394 36.0858H114.324C114.234 36.0905 114.184 36.1275 114.184 36.2016V36.3313H114.778H115.133H115.722V36.2016C115.722 36.1275 115.672 36.0905 115.582 36.0858H115.517C115.482 36.0858 115.427 36.0766 115.357 36.0766C115.287 36.0766 115.217 36.0719 115.133 36.0719V34.4833H115.981C116.251 34.4833 116.496 34.4417 116.715 34.3768C116.93 34.3073 117.11 34.2147 117.265 34.0943C117.419 33.9692 117.539 33.8257 117.614 33.6589C117.699 33.4922 117.734 33.3069 117.734 33.1078C117.734 32.6724 117.589 32.3297 117.295 32.0981ZM117.28 33.5478C117.215 33.6867 117.125 33.8025 117.005 33.8998C116.89 33.997 116.74 34.0758 116.566 34.1313C116.391 34.1916 116.196 34.2147 115.981 34.2147H115.133V32.0055H115.981C116.441 32.0055 116.79 32.1028 117.03 32.2927C117.26 32.4779 117.379 32.7512 117.379 33.1032C117.379 33.2653 117.345 33.4135 117.28 33.5478ZM127.75 31.987C127.84 31.9777 127.89 31.9407 127.89 31.8712V31.7461H127.306H127.051C127.016 31.7461 126.996 31.7461 126.976 31.7508C126.956 31.76 126.941 31.7786 126.921 31.8063L124.974 34.9882C124.954 35.0206 124.939 35.053 124.929 35.0854C124.914 35.1179 124.899 35.1549 124.884 35.1873C124.859 35.1179 124.829 35.053 124.794 34.9928L122.797 31.8063C122.772 31.7786 122.762 31.76 122.737 31.7508C122.717 31.7461 122.697 31.7461 122.662 31.7461H122.417H121.823V31.8712C121.823 31.9407 121.873 31.9777 121.963 31.987H122.033C122.068 31.987 122.118 31.9916 122.188 31.9916C122.258 31.9916 122.333 32.0009 122.417 32.0009V36.0719C122.333 36.0719 122.258 36.0766 122.188 36.0766C122.118 36.0766 122.068 36.0858 122.033 36.0858H121.963C121.873 36.0905 121.823 36.1275 121.823 36.2016V36.3313H122.417H122.727H123.331V36.2016C123.331 36.1275 123.286 36.0905 123.191 36.0858H123.121C123.087 36.0858 123.032 36.0766 122.962 36.0766C122.892 36.0766 122.807 36.0719 122.727 36.0719V32.4223C122.727 32.3621 122.727 32.3019 122.717 32.2371L124.719 35.4467C124.754 35.5069 124.799 35.5347 124.859 35.5347H124.914C124.974 35.5347 125.019 35.5069 125.054 35.4467L126.996 32.2371C126.991 32.3019 126.991 32.3621 126.991 32.4223V36.0719C126.906 36.0719 126.821 36.0766 126.751 36.0766C126.681 36.0766 126.627 36.0858 126.592 36.0858H126.522C126.432 36.0905 126.382 36.1275 126.382 36.2016V36.3313H126.991H127.306H127.89V36.2016C127.89 36.1275 127.84 36.0905 127.75 36.0858H127.69C127.655 36.0858 127.595 36.0766 127.525 36.0766C127.455 36.0766 127.386 36.0719 127.306 36.0719V32.0009C127.386 32.0009 127.455 31.9916 127.525 31.9916C127.595 31.9916 127.655 31.987 127.69 31.987H127.75ZM132.653 31.7461H132.059V31.8712C132.059 31.9407 132.104 31.9777 132.199 31.987H132.269C132.304 31.987 132.349 31.9916 132.418 31.9916C132.488 31.9916 132.568 32.0009 132.653 32.0009V36.0719C132.568 36.0719 132.488 36.0766 132.418 36.0766C132.349 36.0766 132.304 36.0858 132.269 36.0858H132.199C132.104 36.0905 132.064 36.1275 132.064 36.2016V36.3313H132.653H135.614V36.0534V35.3772H135.439C135.344 35.3772 135.299 35.4374 135.294 35.5393C135.294 35.5532 135.284 35.5764 135.284 35.6227C135.284 35.669 135.284 35.7338 135.279 35.8311C135.274 35.9284 135.265 35.9932 135.265 36.0534H133.008V34.1406H134.98V33.872H133.008V32.0194H135.265C135.279 32.3019 135.294 32.4779 135.294 32.5381C135.299 32.64 135.344 32.691 135.439 32.691H135.614V32.0194V31.7461H132.653ZM144.312 31.7461H143.997H143.388V31.8712C143.388 31.9407 143.438 31.9777 143.528 31.987H143.598C143.633 31.987 143.688 31.9916 143.758 31.9916C143.828 31.9916 143.912 32.0009 143.997 32.0009V35.5903C143.997 35.6505 143.997 35.7153 144.002 35.7802L140.802 31.8063C140.782 31.7786 140.767 31.76 140.747 31.7508C140.727 31.7461 140.702 31.7415 140.667 31.7415H140.492H139.898V31.8712C139.898 31.9407 139.948 31.9777 140.038 31.987H140.108C140.143 31.987 140.193 31.9916 140.263 31.9916C140.332 31.9916 140.412 32.0009 140.492 32.0009V36.0719C140.412 36.0719 140.332 36.0766 140.263 36.0766C140.193 36.0766 140.143 36.0858 140.108 36.0858H140.038C139.948 36.0905 139.898 36.1275 139.898 36.2016V36.3313H140.492H140.802H141.411V36.2016C141.411 36.1275 141.361 36.0905 141.271 36.0858H141.201C141.166 36.0858 141.101 36.0766 141.031 36.0766C140.962 36.0766 140.887 36.0719 140.802 36.0719V32.4733C140.802 32.4131 140.802 32.3482 140.797 32.2834L144.012 36.2665C144.047 36.3128 144.082 36.3313 144.137 36.3313H144.312V32.0009C144.397 32.0009 144.467 31.9916 144.537 31.9916C144.606 31.9916 144.661 31.987 144.696 31.987H144.756C144.851 31.9777 144.896 31.9407 144.896 31.8712V31.7461H144.312ZM152.665 31.7461H152.565H148.925H148.821H148.771V32.691H148.945C149.045 32.691 149.085 32.64 149.09 32.5381C149.09 32.4918 149.105 32.3251 149.12 32.024H150.568V36.0719C150.483 36.0719 150.413 36.0766 150.343 36.0766C150.274 36.0766 150.219 36.0858 150.184 36.0858H150.119C150.029 36.0905 149.979 36.1275 149.979 36.2016V36.3313H150.568H150.923H151.517V36.2016C151.517 36.1275 151.467 36.0905 151.377 36.0858H151.307C151.272 36.0858 151.222 36.0766 151.152 36.0766C151.082 36.0766 151.008 36.0719 150.923 36.0719V32.024H152.366C152.386 32.3575 152.391 32.5242 152.391 32.5381C152.401 32.64 152.446 32.691 152.545 32.691H152.715V31.7461H152.665ZM166.566 34.0341C166.566 33.6867 166.506 33.3625 166.391 33.0754C166.281 32.7882 166.121 32.5428 165.912 32.3343C165.702 32.1306 165.457 31.9684 165.168 31.8573C164.883 31.7461 164.554 31.6859 164.204 31.6859C163.855 31.6859 163.54 31.7461 163.255 31.8573C162.966 31.9684 162.716 32.1306 162.506 32.3343C162.297 32.5428 162.137 32.7882 162.022 33.0754C161.912 33.3625 161.847 33.6867 161.847 34.0341C161.847 34.3907 161.912 34.7149 162.022 35.0021C162.137 35.2846 162.297 35.5347 162.506 35.7385C162.716 35.9469 162.966 36.1044 163.255 36.2155C163.54 36.322 163.855 36.3822 164.204 36.3822C164.554 36.3822 164.883 36.322 165.168 36.2155C165.457 36.1044 165.702 35.9469 165.912 35.7385C166.121 35.5347 166.281 35.2846 166.391 35.0021C166.506 34.7149 166.566 34.3907 166.566 34.0341ZM166.191 34.0341C166.191 34.3583 166.146 34.6454 166.052 34.8955C165.952 35.1503 165.822 35.3726 165.647 35.544C165.472 35.7199 165.263 35.8635 165.018 35.9562C164.773 36.0442 164.504 36.0905 164.204 36.0905C163.91 36.0905 163.645 36.0442 163.4 35.9562C163.156 35.8635 162.946 35.7199 162.771 35.544C162.596 35.3726 162.457 35.1503 162.362 34.8955C162.262 34.6454 162.222 34.3583 162.222 34.0341C162.222 33.7191 162.262 33.4274 162.362 33.1726C162.457 32.9179 162.596 32.7002 162.771 32.5242C162.946 32.3482 163.156 32.2047 163.4 32.1167C163.645 32.024 163.91 31.9731 164.204 31.9731C164.504 31.9731 164.773 32.024 165.018 32.1167C165.263 32.2047 165.472 32.3482 165.647 32.5242C165.822 32.7002 165.952 32.9179 166.052 33.1726C166.146 33.4274 166.191 33.7191 166.191 34.0341ZM174.969 31.7461H174.655H174.045V31.8712C174.045 31.9407 174.095 31.9777 174.185 31.987H174.255C174.29 31.987 174.35 31.9916 174.42 31.9916C174.49 31.9916 174.57 32.0009 174.655 32.0009V35.5903C174.655 35.6505 174.655 35.7153 174.664 35.7802L171.459 31.8063C171.439 31.7786 171.424 31.76 171.404 31.7508C171.384 31.7461 171.364 31.7415 171.329 31.7415H171.154H170.56V31.8712C170.56 31.9407 170.61 31.9777 170.7 31.987H170.77C170.805 31.987 170.855 31.9916 170.925 31.9916C170.995 31.9916 171.07 32.0009 171.154 32.0009V36.0719C171.07 36.0719 170.995 36.0766 170.925 36.0766C170.855 36.0766 170.805 36.0858 170.77 36.0858H170.7C170.61 36.0905 170.56 36.1275 170.56 36.2016V36.3313H171.154H171.459H172.068V36.2016C172.068 36.1275 172.018 36.0905 171.928 36.0858H171.858C171.823 36.0858 171.764 36.0766 171.694 36.0766C171.624 36.0766 171.544 36.0719 171.459 36.0719V32.4733C171.459 32.4131 171.459 32.3482 171.454 32.2834L174.669 36.2665C174.704 36.3128 174.739 36.3313 174.794 36.3313H174.969V32.0009C175.054 32.0009 175.124 31.9916 175.194 31.9916C175.264 31.9916 175.319 31.987 175.354 31.987H175.418C175.508 31.9777 175.558 31.9407 175.558 31.8712V31.7461H174.969ZM187.861 32.0981C187.566 31.8619 187.127 31.7461 186.548 31.7461H185.345H184.75V31.8712C184.75 31.9407 184.8 31.9777 184.89 31.987H184.96C184.995 31.987 185.045 31.9916 185.115 31.9916C185.185 31.9916 185.26 32.0009 185.345 32.0009V36.0719C185.26 36.0719 185.185 36.0766 185.115 36.0766C185.045 36.0766 184.995 36.0858 184.96 36.0858H184.89C184.8 36.0905 184.75 36.1275 184.75 36.2016V36.3313H185.345H185.699H186.288V36.2016C186.288 36.1275 186.238 36.0905 186.148 36.0858H186.084C186.049 36.0858 185.994 36.0766 185.924 36.0766C185.854 36.0766 185.784 36.0719 185.699 36.0719V34.4833H186.548C186.818 34.4833 187.062 34.4417 187.282 34.3768C187.497 34.3073 187.676 34.2147 187.831 34.0943C187.986 33.9692 188.106 33.8257 188.181 33.6589C188.266 33.4922 188.3 33.3069 188.3 33.1078C188.3 32.6724 188.156 32.3297 187.861 32.0981ZM187.846 33.5478C187.781 33.6867 187.691 33.8025 187.571 33.8998C187.457 33.997 187.307 34.0758 187.132 34.1313C186.957 34.1916 186.763 34.2147 186.548 34.2147H185.699V32.0055H186.548C187.007 32.0055 187.357 32.1028 187.596 32.2927C187.826 32.4779 187.946 32.7512 187.946 33.1032C187.946 33.2653 187.911 33.4135 187.846 33.5478ZM197.018 34.0341C197.018 33.6867 196.953 33.3625 196.844 33.0754C196.729 32.7882 196.569 32.5428 196.359 32.3343C196.15 32.1306 195.905 31.9684 195.62 31.8573C195.331 31.7461 195.006 31.6859 194.657 31.6859C194.307 31.6859 193.993 31.7461 193.703 31.8573C193.418 31.9684 193.164 32.1306 192.954 32.3343C192.744 32.5428 192.584 32.7882 192.475 33.0754C192.36 33.3625 192.3 33.6867 192.3 34.0341C192.3 34.3907 192.36 34.7149 192.475 35.0021C192.584 35.2846 192.744 35.5347 192.954 35.7385C193.164 35.9469 193.418 36.1044 193.703 36.2155C193.993 36.322 194.307 36.3822 194.657 36.3822C195.006 36.3822 195.331 36.322 195.62 36.2155C195.905 36.1044 196.15 35.9469 196.359 35.7385C196.569 35.5347 196.729 35.2846 196.844 35.0021C196.953 34.7149 197.018 34.3907 197.018 34.0341ZM196.639 34.0341C196.639 34.3583 196.599 34.6454 196.499 34.8955C196.404 35.1503 196.269 35.3726 196.095 35.544C195.92 35.7199 195.71 35.8635 195.465 35.9562C195.221 36.0442 194.956 36.0905 194.657 36.0905C194.362 36.0905 194.097 36.0442 193.853 35.9562C193.608 35.8635 193.398 35.7199 193.224 35.544C193.049 35.3726 192.909 35.1503 192.809 34.8955C192.709 34.6454 192.669 34.3583 192.669 34.0341C192.669 33.7191 192.709 33.4274 192.809 33.1726C192.909 32.9179 193.049 32.7002 193.224 32.5242C193.398 32.3482 193.608 32.2047 193.853 32.1167C194.097 32.024 194.362 31.9731 194.657 31.9731C194.956 31.9731 195.221 32.024 195.465 32.1167C195.71 32.2047 195.92 32.3482 196.095 32.5242C196.269 32.7002 196.404 32.9179 196.499 33.1726C196.599 33.4274 196.639 33.7191 196.639 34.0341ZM202.556 31.987C202.645 31.9777 202.685 31.9407 202.685 31.8712V31.7415H202.101H201.742H201.148V31.8712C201.148 31.9407 201.197 31.9777 201.287 31.987H201.357C201.392 31.987 201.442 31.9916 201.512 31.9916C201.582 31.9916 201.657 32.0009 201.742 32.0009V36.0719C201.657 36.0719 201.582 36.0766 201.512 36.0766C201.442 36.0766 201.392 36.0858 201.357 36.0858H201.287C201.197 36.0905 201.148 36.1275 201.148 36.2016V36.3313H201.742H202.101H202.685V36.2016C202.685 36.1275 202.645 36.0905 202.556 36.0858H202.486C202.451 36.0858 202.401 36.0766 202.331 36.0766C202.261 36.0766 202.181 36.0719 202.101 36.0719V32.0009C202.181 32.0009 202.261 31.9916 202.331 31.9916C202.401 31.9916 202.451 31.987 202.486 31.987H202.556ZM211.263 31.7461H210.949H210.34V31.8712C210.34 31.9407 210.39 31.9777 210.479 31.987H210.549C210.584 31.987 210.639 31.9916 210.709 31.9916C210.779 31.9916 210.864 32.0009 210.949 32.0009V35.5903C210.949 35.6505 210.949 35.7153 210.954 35.7802L207.753 31.8063C207.733 31.7786 207.718 31.76 207.698 31.7508C207.678 31.7461 207.658 31.7415 207.623 31.7415H207.449H206.855V31.8712C206.855 31.9407 206.899 31.9777 206.994 31.987H207.064C207.099 31.987 207.144 31.9916 207.214 31.9916C207.284 31.9916 207.364 32.0009 207.449 32.0009V36.0719C207.364 36.0719 207.284 36.0766 207.214 36.0766C207.144 36.0766 207.099 36.0858 207.064 36.0858H206.994C206.899 36.0905 206.855 36.1275 206.855 36.2016V36.3313H207.449H207.753H208.362V36.2016C208.362 36.1275 208.313 36.0905 208.223 36.0858H208.153C208.118 36.0858 208.053 36.0766 207.983 36.0766C207.913 36.0766 207.838 36.0719 207.753 36.0719V32.4733C207.753 32.4131 207.753 32.3482 207.748 32.2834L210.964 36.2665C210.999 36.3128 211.034 36.3313 211.089 36.3313H211.263V32.0009C211.348 32.0009 211.418 31.9916 211.488 31.9916C211.558 31.9916 211.613 31.987 211.648 31.987H211.713C211.803 31.9777 211.853 31.9407 211.853 31.8712V31.7461H211.263ZM219.617 31.7461H219.517H215.877H215.772H215.722V32.691H215.897C215.997 32.691 216.037 32.64 216.047 32.5381C216.047 32.4918 216.057 32.3251 216.072 32.024H217.52V36.0719C217.435 36.0719 217.365 36.0766 217.295 36.0766C217.225 36.0766 217.17 36.0858 217.135 36.0858H217.07C216.98 36.0905 216.93 36.1275 216.93 36.2016V36.3313H217.52H217.874H218.468V36.2016C218.468 36.1275 218.423 36.0905 218.329 36.0858H218.259C218.224 36.0858 218.179 36.0766 218.109 36.0766C218.039 36.0766 217.959 36.0719 217.874 36.0719V32.024H219.317C219.337 32.3575 219.342 32.5242 219.342 32.5381C219.352 32.64 219.402 32.691 219.497 32.691H219.667V31.7461H219.617Z" fill="white"/>
</svg>
