<svg height="2500" width="2183" viewBox="0 0 2426 564" fill="none" xmlns="http://www.w3.org/2000/svg">
<g clip-path="url(#clip0_2_2)">
<path fill-rule="evenodd" clip-rule="evenodd" d="M2351.81 249.542C2351.81 229.011 2366.4 213.525 2385.14 213.525C2403.63 213.525 2418.25 229.011 2418.25 249.542C2418.25 270.423 2403.63 285.779 2385.14 285.779C2366.4 285.779 2351.81 270.423 2351.81 249.542ZM2385.14 293.017C2407.43 293.017 2426.49 274.664 2426.49 249.542C2426.49 224.666 2407.43 206.314 2385.14 206.314C2362.62 206.314 2343.57 224.666 2343.57 249.542C2343.57 274.664 2362.62 293.017 2385.14 293.017ZM2376.48 252.979H2384.71L2397.15 274.664H2405.15L2391.73 252.642C2398.67 251.734 2403.96 247.83 2403.96 238.881C2403.96 229.011 2398.43 224.666 2387.29 224.666H2369.33V274.664H2376.48V252.979V252.979ZM2376.48 246.559V231.073H2386.2C2391.2 231.073 2396.49 232.227 2396.49 238.414C2396.49 246.105 2391.09 246.559 2385.01 246.559H2376.48V246.559ZM2205.24 430.509H2295.19V364.169H2207.44V309.605H2303.2L2303.3 242.72H2126.8V404.699C2101.66 359.681 2016.29 370.705 2007.63 333.184C2002.95 312.964 2017.94 299.268 2045.22 299.268C2072.49 299.268 2096.83 318.45 2096.83 318.45L2124.85 260.942C2124.85 260.942 2091.66 237.221 2029.73 236.611C1955.26 235.872 1924.3 300.76 1925.04 335.428C1925.06 336.673 1924.96 337.84 1924.78 338.968C1902.26 280.643 1846.48 237.947 1779.61 232.629L1778.84 226.287C1778.84 226.287 1796.52 229.971 1808.15 229.05C1829.18 227.39 1877.84 184.81 1925.39 185.355C1965.76 185.821 2032.97 232.292 2058.09 236.78C2077.87 240.307 2093.79 231.255 2093.79 231.255C2093.79 231.255 2079.88 237.688 2060.57 230.658C2045.55 225.185 1975.71 161.023 1917.64 163.241C1859.6 165.446 1826.93 215.224 1802.62 215.224C1736.25 213.006 1746.75 39.3669 1634.49 36.0466C1531.11 32.9987 1509.52 180.374 1424.37 180.932C1376.26 181.23 1353.01 152.178 1348.6 154.383C1344.16 156.601 1348.6 161.568 1346.39 162.683C1344.16 163.786 1337.52 165.446 1328.69 169.324C1324.94 171.166 1314.02 180.037 1302.14 186.794C1288.48 194.524 1274.1 200.179 1276.15 201.956C1280.02 205.276 1313.76 196.418 1339.19 195.873C1364.63 195.328 1403.33 220.749 1459.75 219.647C1465.27 217.986 1464.71 224.627 1461.39 229.05C1459.06 232.175 1453.74 234.445 1450.78 235.522C1363.39 235.586 1291.48 299.177 1281.91 380.991H1149.3V442.143H1224.15C1210.21 473.685 1181.65 495.371 1148.59 495.371C1101.85 495.371 1063.94 452.104 1063.94 398.759C1063.94 345.389 1101.83 302.121 1148.59 302.121C1178.99 302.121 1205.57 320.461 1220.49 347.943L1290.89 316.868C1262.48 267.842 1209.44 234.769 1148.58 234.769C1077.94 234.769 1017.88 279.282 994.612 341.64V242.746H915.886V430.691L765.904 240.943H687.903V341.446C664.545 277.751 601.693 232.046 527.623 232.046C442.139 232.046 371.584 292.887 359.496 372.041L337.188 242.72H259.914L195.208 408.499L130.502 242.72H53.202L0 551.219H75.5229L107.429 374.804L178.192 551.219H212.198L282.961 374.804L314.867 551.219H390.39L376.642 471.571C404.994 524.138 461.905 560.103 527.61 560.103C601.68 560.103 664.532 514.41 687.89 450.69V551.206H765.009V359.72L915.523 551.206H994.612V455.826C1017.88 518.198 1077.94 562.697 1148.58 562.697C1215.03 562.697 1270.88 523.684 1296.08 467.278C1322.85 524.047 1382.06 563.566 1450.93 563.566C1522.59 563.566 1583.79 520.805 1608.87 460.314C1634.81 518.95 1695.12 560.09 1765.44 560.09C1859.42 560.09 1935.59 486.655 1935.59 396.074C1935.59 394.907 1933.82 386.088 1933.79 384.959C1973.58 421.028 2054.77 423.103 2056.27 458.524C2057.46 486.694 2037.08 496.136 2012.01 493.931C1984.08 491.454 1944.93 464.425 1944.93 464.425L1911.74 525.629C1911.74 525.629 1944.35 558.819 2020.87 558.819C2086.25 558.819 2116.22 520.999 2126.76 503.114V551.219H2303.26V484.347H2205.2V430.509H2205.24V430.509ZM527.623 485.605C503.878 485.605 481.106 476.172 464.316 459.382C447.525 442.592 438.093 419.819 438.093 396.074C438.093 372.329 447.525 349.557 464.316 332.767C481.106 315.977 503.878 306.544 527.623 306.544C551.368 306.544 574.14 315.977 590.93 332.767C607.721 349.557 617.153 372.329 617.153 396.074C617.153 419.819 607.721 442.592 590.93 459.382C574.14 476.172 551.368 485.605 527.623 485.605ZM1450.94 489.081C1439 489.368 1427.13 487.265 1416.02 482.895C1404.91 478.526 1394.78 471.978 1386.24 463.637C1377.69 455.296 1370.9 445.331 1366.27 434.327C1361.63 423.323 1359.24 411.504 1359.24 399.563C1359.24 387.623 1361.63 375.803 1366.27 364.799C1370.9 353.796 1377.69 343.83 1386.24 335.489C1394.78 327.148 1404.91 320.6 1416.02 316.231C1427.13 311.861 1439 309.758 1450.94 310.046C1474.31 310.608 1496.53 320.287 1512.86 337.013C1529.19 353.74 1538.33 376.188 1538.33 399.563C1538.33 422.938 1529.19 445.387 1512.86 462.113C1496.53 478.84 1474.31 488.518 1450.94 489.081V489.081ZM1607.51 335.285C1583.4 280.721 1529.46 241.371 1465.45 236.157C1465.8 235.95 1468.85 234.302 1472.5 230.152C1476.37 225.729 1470.85 220.191 1474.17 216.884C1516.19 220.204 1544.34 141.192 1627.36 140.57C1701.45 140.025 1732.97 194.758 1763.38 219.089C1742.92 224.069 1708.08 228.492 1709.73 231.799C1723.66 231.237 1737.62 231.506 1751.53 232.603C1685.94 237.739 1630.95 278.776 1607.51 335.285V335.285ZM1765.46 485.605C1753.7 485.605 1742.06 483.289 1731.2 478.791C1720.34 474.292 1710.47 467.698 1702.16 459.386C1693.85 451.073 1687.25 441.205 1682.75 430.344C1678.26 419.483 1675.94 407.843 1675.94 396.087C1675.93 378.375 1681.18 361.059 1691.02 346.33C1700.86 331.601 1714.84 320.12 1731.2 313.339C1747.57 306.559 1765.57 304.783 1782.95 308.237C1800.32 311.692 1816.28 320.22 1828.8 332.745C1841.32 345.269 1849.85 361.227 1853.31 378.599C1856.76 395.971 1854.99 413.977 1848.21 430.34C1841.42 446.703 1829.94 460.688 1815.21 470.525C1800.49 480.362 1783.17 485.61 1765.46 485.605V485.605Z" fill="#CE3829"/>
</g>
<defs>
<clipPath id="clip0_2_2">
<rect width="2426" height="564" fill="white"/>
</clipPath>
</defs>
</svg>
